<?xml version='1.0' encoding='us-ascii'?>
<svg height="497.00mm" viewBox="0.0 0.0 251.90 497.00" width="251.90mm" xmlns="http://www.w3.org/2000/svg" xmlns:cc="http://creativecommons.org/ns#" xmlns:dc="http://purl.org/dc/elements/1.1/" xmlns:inkscape="http://www.inkscape.org/namespaces/inkscape" xmlns:rdf="http://www.w3.org/1999/02/22-rdf-syntax-ns#" xmlns:svg="http://www.w3.org/2000/svg" xmlns:xlink="http://www.w3.org/1999/xlink">
<!--
UniversalBox - Box with various options for different styles and lids

Created with Boxes.py (https://festi.info/boxes.py)
Creation date: 2022-01-31 19:14:00
Command line (remove spaces between dashes): boxes UniversalBox - -FingerJoint_angle=90.0 - -FingerJoint_style=rectangular - -FingerJoint_surroundingspaces=2.0 - -FingerJoint_edge_width=1.0 - -FingerJoint_extra_length=0.0 - -FingerJoint_finger=2.0 - -FingerJoint_play=0.0 - -FingerJoint_space=2.0 - -FingerJoint_width=1.0 - -Stackable_angle=60 - -Stackable_height=2.0 - -Stackable_holedistance=1.0 - -Stackable_width=4.0 - -Hinge_grip_percentage=0 - -Hinge_outset=0 - -Hinge_outset=1 - -Hinge_pinwidth=0.5 - -Hinge_style=flush - -Hinge_axle=2 - -Hinge_grip_length=0 - -Hinge_hingestrength=1 - -CabinetHinge_bore=3.2 - -CabinetHinge_eyes_per_hinge=5 - -CabinetHinge_hinges=2 - -CabinetHinge_style=inside - -CabinetHinge_eye=1.5 - -CabinetHinge_play=0.05 - -CabinetHinge_spacing=2.0 - -Lid_angle=90.0 - -Lid_hole_width=0 - -Lid_second_pin=0 - -Lid_second_pin=1 - -Lid_spring=both - -Lid_style=rectangular - -Lid_surroundingspaces=2.0 - -Lid_edge_width=1.0 - -Lid_extra_length=0.0 - -Lid_finger=3.0 - -Lid_play=0.05 - -Lid_space=2.0 - -Lid_width=1.0 - -Click_angle=5.0 - -Click_bottom_radius=0.1 - -Click_depth=3.0 - -RoundedTriangleEdge_height=150.0 - -RoundedTriangleEdge_r_hole=2.0 - -RoundedTriangleEdge_radius=30.0 - -RoundedTriangleEdge_outset=1 - -Flex_stretch=1.05 - -Flex_connection=1.0 - -Flex_distance=0.5 - -Flex_width=5.0 - -top_edge=i - -bottom_edge=F - -x=100.0 - -y=130.0 - -h=100.0 - -outside=0 - -outside=1 '- -vertical_edges=finger holes' '- -lid=default (none)' - -thickness=3.0 - -format=svg - -tabs=0.0 - -debug=0 - -labels=0 - -labels=1 - -reference=100 - -burn=0.1
Url: http://www.festi.info/UniversalBox?FingerJoint_angle=90.0&FingerJoint_style=rectangular&FingerJoint_surroundingspaces=2.0&FingerJoint_edge_width=1.0&FingerJoint_extra_length=0.0&FingerJoint_finger=2.0&FingerJoint_play=0.0&FingerJoint_space=2.0&FingerJoint_width=1.0&Stackable_angle=60&Stackable_height=2.0&Stackable_holedistance=1.0&Stackable_width=4.0&Hinge_grip_percentage=0&Hinge_outset=0&Hinge_outset=1&Hinge_pinwidth=0.5&Hinge_style=flush&Hinge_axle=2&Hinge_grip_length=0&Hinge_hingestrength=1&CabinetHinge_bore=3.2&CabinetHinge_eyes_per_hinge=5&CabinetHinge_hinges=2&CabinetHinge_style=inside&CabinetHinge_eye=1.5&CabinetHinge_play=0.05&CabinetHinge_spacing=2.0&Lid_angle=90.0&Lid_hole_width=0&Lid_second_pin=0&Lid_second_pin=1&Lid_spring=both&Lid_style=rectangular&Lid_surroundingspaces=2.0&Lid_edge_width=1.0&Lid_extra_length=0.0&Lid_finger=3.0&Lid_play=0.05&Lid_space=2.0&Lid_width=1.0&Click_angle=5.0&Click_bottom_radius=0.1&Click_depth=3.0&RoundedTriangleEdge_height=150.0&RoundedTriangleEdge_r_hole=2.0&RoundedTriangleEdge_radius=30.0&RoundedTriangleEdge_outset=1&Flex_stretch=1.05&Flex_connection=1.0&Flex_distance=0.5&Flex_width=5.0&top_edge=i&bottom_edge=F&x=100.0&y=130.0&h=100.0&outside=0&outside=1&vertical_edges=finger+holes&lid=default+%28none%29&thickness=3.0&format=svg&tabs=0.0&debug=0&labels=0&labels=1&reference=100&burn=0.1&render=1
SettingsUrl: http://www.festi.info/UniversalBox?FingerJoint_angle=90.0&FingerJoint_style=rectangular&FingerJoint_surroundingspaces=2.0&FingerJoint_edge_width=1.0&FingerJoint_extra_length=0.0&FingerJoint_finger=2.0&FingerJoint_play=0.0&FingerJoint_space=2.0&FingerJoint_width=1.0&Stackable_angle=60&Stackable_height=2.0&Stackable_holedistance=1.0&Stackable_width=4.0&Hinge_grip_percentage=0&Hinge_outset=0&Hinge_outset=1&Hinge_pinwidth=0.5&Hinge_style=flush&Hinge_axle=2&Hinge_grip_length=0&Hinge_hingestrength=1&CabinetHinge_bore=3.2&CabinetHinge_eyes_per_hinge=5&CabinetHinge_hinges=2&CabinetHinge_style=inside&CabinetHinge_eye=1.5&CabinetHinge_play=0.05&CabinetHinge_spacing=2.0&Lid_angle=90.0&Lid_hole_width=0&Lid_second_pin=0&Lid_second_pin=1&Lid_spring=both&Lid_style=rectangular&Lid_surroundingspaces=2.0&Lid_edge_width=1.0&Lid_extra_length=0.0&Lid_finger=3.0&Lid_play=0.05&Lid_space=2.0&Lid_width=1.0&Click_angle=5.0&Click_bottom_radius=0.1&Click_depth=3.0&RoundedTriangleEdge_height=150.0&RoundedTriangleEdge_r_hole=2.0&RoundedTriangleEdge_radius=30.0&RoundedTriangleEdge_outset=1&Flex_stretch=1.05&Flex_connection=1.0&Flex_distance=0.5&Flex_width=5.0&top_edge=i&bottom_edge=F&x=100.0&y=130.0&h=100.0&outside=0&outside=1&vertical_edges=finger+holes&lid=default+%28none%29&thickness=3.0&format=svg&tabs=0.0&debug=0&labels=0&labels=1&reference=100&burn=0.1
-->
<title>UniversalBox</title>
<metadata>
<rdf:RDF><cc:Work>
<dc:title>Box - UniversalBox</dc:title>
<dc:date>2022-01-31 19:14:00</dc:date>
<dc:source>http://www.festi.info/UniversalBox?FingerJoint_angle=90.0&amp;FingerJoint_style=rectangular&amp;FingerJoint_surroundingspaces=2.0&amp;FingerJoint_edge_width=1.0&amp;FingerJoint_extra_length=0.0&amp;FingerJoint_finger=2.0&amp;FingerJoint_play=0.0&amp;FingerJoint_space=2.0&amp;FingerJoint_width=1.0&amp;Stackable_angle=60&amp;Stackable_height=2.0&amp;Stackable_holedistance=1.0&amp;Stackable_width=4.0&amp;Hinge_grip_percentage=0&amp;Hinge_outset=0&amp;Hinge_outset=1&amp;Hinge_pinwidth=0.5&amp;Hinge_style=flush&amp;Hinge_axle=2&amp;Hinge_grip_length=0&amp;Hinge_hingestrength=1&amp;CabinetHinge_bore=3.2&amp;CabinetHinge_eyes_per_hinge=5&amp;CabinetHinge_hinges=2&amp;CabinetHinge_style=inside&amp;CabinetHinge_eye=1.5&amp;CabinetHinge_play=0.05&amp;CabinetHinge_spacing=2.0&amp;Lid_angle=90.0&amp;Lid_hole_width=0&amp;Lid_second_pin=0&amp;Lid_second_pin=1&amp;Lid_spring=both&amp;Lid_style=rectangular&amp;Lid_surroundingspaces=2.0&amp;Lid_edge_width=1.0&amp;Lid_extra_length=0.0&amp;Lid_finger=3.0&amp;Lid_play=0.05&amp;Lid_space=2.0&amp;Lid_width=1.0&amp;Click_angle=5.0&amp;Click_bottom_radius=0.1&amp;Click_depth=3.0&amp;RoundedTriangleEdge_height=150.0&amp;RoundedTriangleEdge_r_hole=2.0&amp;RoundedTriangleEdge_radius=30.0&amp;RoundedTriangleEdge_outset=1&amp;Flex_stretch=1.05&amp;Flex_connection=1.0&amp;Flex_distance=0.5&amp;Flex_width=5.0&amp;top_edge=i&amp;bottom_edge=F&amp;x=100.0&amp;y=130.0&amp;h=100.0&amp;outside=0&amp;outside=1&amp;vertical_edges=finger+holes&amp;lid=default+%28none%29&amp;thickness=3.0&amp;format=svg&amp;tabs=0.0&amp;debug=0&amp;labels=0&amp;labels=1&amp;reference=100&amp;burn=0.1&amp;render=1</dc:source>
<dc:description>Box with various options for different styles and lids

Created with Boxes.py (https://festi.info/boxes.py)
Command line: boxes UniversalBox --FingerJoint_angle=90.0 --FingerJoint_style=rectangular --FingerJoint_surroundingspaces=2.0 --FingerJoint_edge_width=1.0 --FingerJoint_extra_length=0.0 --FingerJoint_finger=2.0 --FingerJoint_play=0.0 --FingerJoint_space=2.0 --FingerJoint_width=1.0 --Stackable_angle=60 --Stackable_height=2.0 --Stackable_holedistance=1.0 --Stackable_width=4.0 --Hinge_grip_percentage=0 --Hinge_outset=0 --Hinge_outset=1 --Hinge_pinwidth=0.5 --Hinge_style=flush --Hinge_axle=2 --Hinge_grip_length=0 --Hinge_hingestrength=1 --CabinetHinge_bore=3.2 --CabinetHinge_eyes_per_hinge=5 --CabinetHinge_hinges=2 --CabinetHinge_style=inside --CabinetHinge_eye=1.5 --CabinetHinge_play=0.05 --CabinetHinge_spacing=2.0 --Lid_angle=90.0 --Lid_hole_width=0 --Lid_second_pin=0 --Lid_second_pin=1 --Lid_spring=both --Lid_style=rectangular --Lid_surroundingspaces=2.0 --Lid_edge_width=1.0 --Lid_extra_length=0.0 --Lid_finger=3.0 --Lid_play=0.05 --Lid_space=2.0 --Lid_width=1.0 --Click_angle=5.0 --Click_bottom_radius=0.1 --Click_depth=3.0 --RoundedTriangleEdge_height=150.0 --RoundedTriangleEdge_r_hole=2.0 --RoundedTriangleEdge_radius=30.0 --RoundedTriangleEdge_outset=1 --Flex_stretch=1.05 --Flex_connection=1.0 --Flex_distance=0.5 --Flex_width=5.0 --top_edge=i --bottom_edge=F --x=100.0 --y=130.0 --h=100.0 --outside=0 --outside=1 '--vertical_edges=finger holes' '--lid=default (none)' --thickness=3.0 --format=svg --tabs=0.0 --debug=0 --labels=0 --labels=1 --reference=100 --burn=0.1
Url: http://www.festi.info/UniversalBox?FingerJoint_angle=90.0&amp;FingerJoint_style=rectangular&amp;FingerJoint_surroundingspaces=2.0&amp;FingerJoint_edge_width=1.0&amp;FingerJoint_extra_length=0.0&amp;FingerJoint_finger=2.0&amp;FingerJoint_play=0.0&amp;FingerJoint_space=2.0&amp;FingerJoint_width=1.0&amp;Stackable_angle=60&amp;Stackable_height=2.0&amp;Stackable_holedistance=1.0&amp;Stackable_width=4.0&amp;Hinge_grip_percentage=0&amp;Hinge_outset=0&amp;Hinge_outset=1&amp;Hinge_pinwidth=0.5&amp;Hinge_style=flush&amp;Hinge_axle=2&amp;Hinge_grip_length=0&amp;Hinge_hingestrength=1&amp;CabinetHinge_bore=3.2&amp;CabinetHinge_eyes_per_hinge=5&amp;CabinetHinge_hinges=2&amp;CabinetHinge_style=inside&amp;CabinetHinge_eye=1.5&amp;CabinetHinge_play=0.05&amp;CabinetHinge_spacing=2.0&amp;Lid_angle=90.0&amp;Lid_hole_width=0&amp;Lid_second_pin=0&amp;Lid_second_pin=1&amp;Lid_spring=both&amp;Lid_style=rectangular&amp;Lid_surroundingspaces=2.0&amp;Lid_edge_width=1.0&amp;Lid_extra_length=0.0&amp;Lid_finger=3.0&amp;Lid_play=0.05&amp;Lid_space=2.0&amp;Lid_width=1.0&amp;Click_angle=5.0&amp;Click_bottom_radius=0.1&amp;Click_depth=3.0&amp;RoundedTriangleEdge_height=150.0&amp;RoundedTriangleEdge_r_hole=2.0&amp;RoundedTriangleEdge_radius=30.0&amp;RoundedTriangleEdge_outset=1&amp;Flex_stretch=1.05&amp;Flex_connection=1.0&amp;Flex_distance=0.5&amp;Flex_width=5.0&amp;top_edge=i&amp;bottom_edge=F&amp;x=100.0&amp;y=130.0&amp;h=100.0&amp;outside=0&amp;outside=1&amp;vertical_edges=finger+holes&amp;lid=default+%28none%29&amp;thickness=3.0&amp;format=svg&amp;tabs=0.0&amp;debug=0&amp;labels=0&amp;labels=1&amp;reference=100&amp;burn=0.1&amp;render=1
SettingsUrl: http://www.festi.info/UniversalBox?FingerJoint_angle=90.0&amp;FingerJoint_style=rectangular&amp;FingerJoint_surroundingspaces=2.0&amp;FingerJoint_edge_width=1.0&amp;FingerJoint_extra_length=0.0&amp;FingerJoint_finger=2.0&amp;FingerJoint_play=0.0&amp;FingerJoint_space=2.0&amp;FingerJoint_width=1.0&amp;Stackable_angle=60&amp;Stackable_height=2.0&amp;Stackable_holedistance=1.0&amp;Stackable_width=4.0&amp;Hinge_grip_percentage=0&amp;Hinge_outset=0&amp;Hinge_outset=1&amp;Hinge_pinwidth=0.5&amp;Hinge_style=flush&amp;Hinge_axle=2&amp;Hinge_grip_length=0&amp;Hinge_hingestrength=1&amp;CabinetHinge_bore=3.2&amp;CabinetHinge_eyes_per_hinge=5&amp;CabinetHinge_hinges=2&amp;CabinetHinge_style=inside&amp;CabinetHinge_eye=1.5&amp;CabinetHinge_play=0.05&amp;CabinetHinge_spacing=2.0&amp;Lid_angle=90.0&amp;Lid_hole_width=0&amp;Lid_second_pin=0&amp;Lid_second_pin=1&amp;Lid_spring=both&amp;Lid_style=rectangular&amp;Lid_surroundingspaces=2.0&amp;Lid_edge_width=1.0&amp;Lid_extra_length=0.0&amp;Lid_finger=3.0&amp;Lid_play=0.05&amp;Lid_space=2.0&amp;Lid_width=1.0&amp;Click_angle=5.0&amp;Click_bottom_radius=0.1&amp;Click_depth=3.0&amp;RoundedTriangleEdge_height=150.0&amp;RoundedTriangleEdge_r_hole=2.0&amp;RoundedTriangleEdge_radius=30.0&amp;RoundedTriangleEdge_outset=1&amp;Flex_stretch=1.05&amp;Flex_connection=1.0&amp;Flex_distance=0.5&amp;Flex_width=5.0&amp;top_edge=i&amp;bottom_edge=F&amp;x=100.0&amp;y=130.0&amp;h=100.0&amp;outside=0&amp;outside=1&amp;vertical_edges=finger+holes&amp;lid=default+%28none%29&amp;thickness=3.0&amp;format=svg&amp;tabs=0.0&amp;debug=0&amp;labels=0&amp;labels=1&amp;reference=100&amp;burn=0.1
</dc:description>
</cc:Work></rdf:RDF></metadata>
<g id="p-0" style="fill:none;stroke-linecap:round;stroke-linejoin:round;">
  <path d="M 10.100 487.000 H 110.100 V 477.000 H 10.100 V 487.000 Z" stroke="rgb(0,0,0)" stroke-width="0.20" />
  <text alignment-baseline="hanging" font-size="10px" style="font-family: sans-serif ; font-weight: normal; font-style: normal; fill: rgb(0,0,0)" text-anchor="middle" transform="matrix( 1.000 0.000 0.000 1.000 60.100 477.000 )">100mm</text><text alignment-baseline="hanging" font-size="4px" style="font-family: sans-serif ; font-weight: normal; font-style: normal; fill: rgb(255,0,0)" text-anchor="middle" transform="matrix( 1.000 0.000 0.000 1.000 15.100 480.000 )" />
</g>
<g id="p-1" style="fill:none;stroke-linecap:round;stroke-linejoin:round;">
  <text alignment-baseline="hanging" font-size="4px" style="font-family: sans-serif ; font-weight: normal; font-style: normal; fill: rgb(255,0,0)" text-anchor="middle" transform="matrix( 1.000 0.000 0.000 1.000 60.100 423.300 )" /><path d="M 16.100 475.300 H 27.100 C 27.155 475.300 27.200 475.255 27.200 475.200 V 472.300 C 27.200 472.200 27.100 472.300 27.200 472.300 H 33.000 C 33.100 472.300 33.000 472.200 33.000 472.300 V 475.200 C 33.000 475.255 33.045 475.300 33.100 475.300 H 39.100 C 39.155 475.300 39.200 475.255 39.200 475.200 V 472.300 C 39.200 472.200 39.100 472.300 39.200 472.300 H 45.000 C 45.100 472.300 45.000 472.200 45.000 472.300 V 475.200 C 45.000 475.255 45.045 475.300 45.100 475.300 H 51.100 C 51.155 475.300 51.200 475.255 51.200 475.200 V 472.300 C 51.200 472.200 51.100 472.300 51.200 472.300 H 57.000 C 57.100 472.300 57.000 472.200 57.000 472.300 V 475.200 C 57.000 475.255 57.045 475.300 57.100 475.300 H 63.100 C 63.155 475.300 63.200 475.255 63.200 475.200 V 472.300 C 63.200 472.200 63.100 472.300 63.200 472.300 H 69.000 C 69.100 472.300 69.000 472.200 69.000 472.300 V 475.200 C 69.000 475.255 69.045 475.300 69.100 475.300 H 75.100 C 75.155 475.300 75.200 475.255 75.200 475.200 V 472.300 C 75.200 472.200 75.100 472.300 75.200 472.300 H 81.000 C 81.100 472.300 81.000 472.200 81.000 472.300 V 475.200 C 81.000 475.255 81.045 475.300 81.100 475.300 H 87.100 C 87.155 475.300 87.200 475.255 87.200 475.200 V 472.300 C 87.200 472.200 87.100 472.300 87.200 472.300 H 93.000 C 93.100 472.300 93.000 472.200 93.000 472.300 V 475.200 C 93.000 475.255 93.045 475.300 93.100 475.300 H 104.100 H 110.100 C 110.155 475.300 110.200 475.255 110.200 475.200 V 384.200 C 110.200 384.145 110.155 384.100 110.100 384.100 H 104.200 C 104.100 384.100 104.200 384.200 104.200 384.100 V 382.700 C 104.200 381.629 103.918 380.577 103.383 379.650 C 102.847 378.723 102.077 377.953 101.150 377.417 C 100.223 376.882 99.171 376.600 98.100 376.600 C 97.029 376.600 95.977 376.882 95.050 377.417 C 94.123 377.953 93.353 378.723 92.817 379.650 C 92.282 380.577 92.000 381.629 92.000 382.700 C 92.000 382.946 91.935 383.187 91.812 383.400 C 91.690 383.613 91.513 383.790 91.300 383.912 C 91.087 384.035 90.846 384.100 90.600 384.100 H 16.100 H 10.100 C 10.045 384.100 10.000 384.145 10.000 384.200 V 475.200 C 10.000 475.255 10.045 475.300 10.100 475.300 H 16.100" stroke="rgb(0,0,0)" stroke-width="0.20" />
  <path d="M 107.000 465.700 V 468.600 C 107.000 468.700 107.100 468.600 107.000 468.600 H 104.200 C 104.100 468.600 104.200 468.700 104.200 468.600 V 462.800 C 104.200 462.700 104.100 462.800 104.200 462.800 H 107.000 C 107.100 462.800 107.000 462.700 107.000 462.800 V 465.700 Z" stroke="rgb(0,0,255)" stroke-width="0.20" />
  <path d="M 107.000 453.700 V 456.600 C 107.000 456.700 107.100 456.600 107.000 456.600 H 104.200 C 104.100 456.600 104.200 456.700 104.200 456.600 V 450.800 C 104.200 450.700 104.100 450.800 104.200 450.800 H 107.000 C 107.100 450.800 107.000 450.700 107.000 450.800 V 453.700 Z" stroke="rgb(0,0,255)" stroke-width="0.20" />
  <path d="M 107.000 441.700 V 444.600 C 107.000 444.700 107.100 444.600 107.000 444.600 H 104.200 C 104.100 444.600 104.200 444.700 104.200 444.600 V 438.800 C 104.200 438.700 104.100 438.800 104.200 438.800 H 107.000 C 107.100 438.800 107.000 438.700 107.000 438.800 V 441.700 Z" stroke="rgb(0,0,255)" stroke-width="0.20" />
  <path d="M 107.000 429.700 V 432.600 C 107.000 432.700 107.100 432.600 107.000 432.600 H 104.200 C 104.100 432.600 104.200 432.700 104.200 432.600 V 426.800 C 104.200 426.700 104.100 426.800 104.200 426.800 H 107.000 C 107.100 426.800 107.000 426.700 107.000 426.800 V 429.700 Z" stroke="rgb(0,0,255)" stroke-width="0.20" />
  <path d="M 107.000 417.700 V 420.600 C 107.000 420.700 107.100 420.600 107.000 420.600 H 104.200 C 104.100 420.600 104.200 420.700 104.200 420.600 V 414.800 C 104.200 414.700 104.100 414.800 104.200 414.800 H 107.000 C 107.100 414.800 107.000 414.700 107.000 414.800 V 417.700 Z" stroke="rgb(0,0,255)" stroke-width="0.20" />
  <path d="M 107.000 405.700 V 408.600 C 107.000 408.700 107.100 408.600 107.000 408.600 H 104.200 C 104.100 408.600 104.200 408.700 104.200 408.600 V 402.800 C 104.200 402.700 104.100 402.800 104.200 402.800 H 107.000 C 107.100 402.800 107.000 402.700 107.000 402.800 V 405.700 Z" stroke="rgb(0,0,255)" stroke-width="0.20" />
  <path d="M 107.000 393.700 V 396.600 C 107.000 396.700 107.100 396.600 107.000 396.600 H 104.200 C 104.100 396.600 104.200 396.700 104.200 396.600 V 390.800 C 104.200 390.700 104.100 390.800 104.200 390.800 H 107.000 C 107.100 390.800 107.000 390.700 107.000 390.800 V 393.700 Z" stroke="rgb(0,0,255)" stroke-width="0.20" />
  <path d="M 95.200 382.600 C 95.200 382.044 95.360 381.500 95.660 381.032 C 95.961 380.564 96.390 380.193 96.895 379.962 C 97.401 379.731 97.962 379.650 98.513 379.730 C 99.063 379.809 99.579 380.044 99.999 380.408 C 100.419 380.772 100.726 381.250 100.883 381.783 C 101.039 382.316 101.039 382.884 100.883 383.417 C 100.726 383.950 100.419 384.428 99.999 384.792 C 99.579 385.156 99.063 385.391 98.513 385.470 C 97.962 385.550 97.401 385.469 96.895 385.238 C 96.390 385.007 95.961 384.636 95.660 384.168 C 95.360 383.700 95.200 383.156 95.200 382.600 Z" stroke="rgb(0,0,255)" stroke-width="0.20" />
  <path d="M 98.100 381.200 H 99.299 C 99.399 381.200 99.299 381.100 99.299 381.200 V 384.000 C 99.299 384.100 99.399 384.000 99.299 384.000 H 96.901 C 96.801 384.000 96.901 384.100 96.901 384.000 V 381.200 C 96.901 381.100 96.801 381.200 96.901 381.200 H 98.100 Z" stroke="rgb(0,0,255)" stroke-width="0.20" />
  <path d="M 13.200 393.700 V 390.800 C 13.200 390.700 13.100 390.800 13.200 390.800 H 16.000 C 16.100 390.800 16.000 390.700 16.000 390.800 V 396.600 C 16.000 396.700 16.100 396.600 16.000 396.600 H 13.200 C 13.100 396.600 13.200 396.700 13.200 396.600 V 393.700 Z" stroke="rgb(0,0,255)" stroke-width="0.20" />
  <path d="M 13.200 405.700 V 402.800 C 13.200 402.700 13.100 402.800 13.200 402.800 H 16.000 C 16.100 402.800 16.000 402.700 16.000 402.800 V 408.600 C 16.000 408.700 16.100 408.600 16.000 408.600 H 13.200 C 13.100 408.600 13.200 408.700 13.200 408.600 V 405.700 Z" stroke="rgb(0,0,255)" stroke-width="0.20" />
  <path d="M 13.200 417.700 V 414.800 C 13.200 414.700 13.100 414.800 13.200 414.800 H 16.000 C 16.100 414.800 16.000 414.700 16.000 414.800 V 420.600 C 16.000 420.700 16.100 420.600 16.000 420.600 H 13.200 C 13.100 420.600 13.200 420.700 13.200 420.600 V 417.700 Z" stroke="rgb(0,0,255)" stroke-width="0.20" />
  <path d="M 13.200 429.700 V 426.800 C 13.200 426.700 13.100 426.800 13.200 426.800 H 16.000 C 16.100 426.800 16.000 426.700 16.000 426.800 V 432.600 C 16.000 432.700 16.100 432.600 16.000 432.600 H 13.200 C 13.100 432.600 13.200 432.700 13.200 432.600 V 429.700 Z" stroke="rgb(0,0,255)" stroke-width="0.20" />
  <path d="M 13.200 441.700 V 438.800 C 13.200 438.700 13.100 438.800 13.200 438.800 H 16.000 C 16.100 438.800 16.000 438.700 16.000 438.800 V 444.600 C 16.000 444.700 16.100 444.600 16.000 444.600 H 13.200 C 13.100 444.600 13.200 444.700 13.200 444.600 V 441.700 Z" stroke="rgb(0,0,255)" stroke-width="0.20" />
  <path d="M 13.200 453.700 V 450.800 C 13.200 450.700 13.100 450.800 13.200 450.800 H 16.000 C 16.100 450.800 16.000 450.700 16.000 450.800 V 456.600 C 16.000 456.700 16.100 456.600 16.000 456.600 H 13.200 C 13.100 456.600 13.200 456.700 13.200 456.600 V 453.700 Z" stroke="rgb(0,0,255)" stroke-width="0.20" />
  <path d="M 13.200 465.700 V 462.800 C 13.200 462.700 13.100 462.800 13.200 462.800 H 16.000 C 16.100 462.800 16.000 462.700 16.000 462.800 V 468.600 C 16.000 468.700 16.100 468.600 16.000 468.600 H 13.200 C 13.100 468.600 13.200 468.700 13.200 468.600 V 465.700 Z" stroke="rgb(0,0,255)" stroke-width="0.20" />
</g>
<g id="p-2" style="fill:none;stroke-linecap:round;stroke-linejoin:round;">
  <text alignment-baseline="hanging" font-size="4px" style="font-family: sans-serif ; font-weight: normal; font-style: normal; fill: rgb(255,0,0)" text-anchor="middle" transform="matrix( 1.000 0.000 0.000 1.000 60.100 321.600 )" /><path d="M 16.100 373.600 H 27.100 C 27.155 373.600 27.200 373.555 27.200 373.500 V 370.600 C 27.200 370.500 27.100 370.600 27.200 370.600 H 33.000 C 33.100 370.600 33.000 370.500 33.000 370.600 V 373.500 C 33.000 373.555 33.045 373.600 33.100 373.600 H 39.100 C 39.155 373.600 39.200 373.555 39.200 373.500 V 370.600 C 39.200 370.500 39.100 370.600 39.200 370.600 H 45.000 C 45.100 370.600 45.000 370.500 45.000 370.600 V 373.500 C 45.000 373.555 45.045 373.600 45.100 373.600 H 51.100 C 51.155 373.600 51.200 373.555 51.200 373.500 V 370.600 C 51.200 370.500 51.100 370.600 51.200 370.600 H 57.000 C 57.100 370.600 57.000 370.500 57.000 370.600 V 373.500 C 57.000 373.555 57.045 373.600 57.100 373.600 H 63.100 C 63.155 373.600 63.200 373.555 63.200 373.500 V 370.600 C 63.200 370.500 63.100 370.600 63.200 370.600 H 69.000 C 69.100 370.600 69.000 370.500 69.000 370.600 V 373.500 C 69.000 373.555 69.045 373.600 69.100 373.600 H 75.100 C 75.155 373.600 75.200 373.555 75.200 373.500 V 370.600 C 75.200 370.500 75.100 370.600 75.200 370.600 H 81.000 C 81.100 370.600 81.000 370.500 81.000 370.600 V 373.500 C 81.000 373.555 81.045 373.600 81.100 373.600 H 87.100 C 87.155 373.600 87.200 373.555 87.200 373.500 V 370.600 C 87.200 370.500 87.100 370.600 87.200 370.600 H 93.000 C 93.100 370.600 93.000 370.500 93.000 370.600 V 373.500 C 93.000 373.555 93.045 373.600 93.100 373.600 H 104.100 H 110.100 C 110.155 373.600 110.200 373.555 110.200 373.500 V 282.500 C 110.200 282.445 110.155 282.400 110.100 282.400 H 104.100 H 29.600 C 29.354 282.400 29.113 282.335 28.900 282.212 C 28.687 282.090 28.510 281.913 28.388 281.700 C 28.265 281.487 28.200 281.246 28.200 281.000 C 28.200 279.929 27.918 278.877 27.383 277.950 C 26.847 277.023 26.077 276.253 25.150 275.717 C 24.223 275.182 23.171 274.900 22.100 274.900 C 21.029 274.900 19.977 275.182 19.050 275.717 C 18.123 276.253 17.353 277.023 16.817 277.950 C 16.282 278.877 16.000 279.929 16.000 281.000 V 282.400 C 16.000 282.500 16.100 282.400 16.000 282.400 H 10.100 C 10.045 282.400 10.000 282.445 10.000 282.500 V 373.500 C 10.000 373.555 10.045 373.600 10.100 373.600 H 16.100" stroke="rgb(0,0,0)" stroke-width="0.20" />
  <path d="M 107.000 364.000 V 366.900 C 107.000 367.000 107.100 366.900 107.000 366.900 H 104.200 C 104.100 366.900 104.200 367.000 104.200 366.900 V 361.100 C 104.200 361.000 104.100 361.100 104.200 361.100 H 107.000 C 107.100 361.100 107.000 361.000 107.000 361.100 V 364.000 Z" stroke="rgb(0,0,255)" stroke-width="0.20" />
  <path d="M 107.000 352.000 V 354.900 C 107.000 355.000 107.100 354.900 107.000 354.900 H 104.200 C 104.100 354.900 104.200 355.000 104.200 354.900 V 349.100 C 104.200 349.000 104.100 349.100 104.200 349.100 H 107.000 C 107.100 349.100 107.000 349.000 107.000 349.100 V 352.000 Z" stroke="rgb(0,0,255)" stroke-width="0.20" />
  <path d="M 107.000 340.000 V 342.900 C 107.000 343.000 107.100 342.900 107.000 342.900 H 104.200 C 104.100 342.900 104.200 343.000 104.200 342.900 V 337.100 C 104.200 337.000 104.100 337.100 104.200 337.100 H 107.000 C 107.100 337.100 107.000 337.000 107.000 337.100 V 340.000 Z" stroke="rgb(0,0,255)" stroke-width="0.20" />
  <path d="M 107.000 328.000 V 330.900 C 107.000 331.000 107.100 330.900 107.000 330.900 H 104.200 C 104.100 330.900 104.200 331.000 104.200 330.900 V 325.100 C 104.200 325.000 104.100 325.100 104.200 325.100 H 107.000 C 107.100 325.100 107.000 325.000 107.000 325.100 V 328.000 Z" stroke="rgb(0,0,255)" stroke-width="0.20" />
  <path d="M 107.000 316.000 V 318.900 C 107.000 319.000 107.100 318.900 107.000 318.900 H 104.200 C 104.100 318.900 104.200 319.000 104.200 318.900 V 313.100 C 104.200 313.000 104.100 313.100 104.200 313.100 H 107.000 C 107.100 313.100 107.000 313.000 107.000 313.100 V 316.000 Z" stroke="rgb(0,0,255)" stroke-width="0.20" />
  <path d="M 107.000 304.000 V 306.900 C 107.000 307.000 107.100 306.900 107.000 306.900 H 104.200 C 104.100 306.900 104.200 307.000 104.200 306.900 V 301.100 C 104.200 301.000 104.100 301.100 104.200 301.100 H 107.000 C 107.100 301.100 107.000 301.000 107.000 301.100 V 304.000 Z" stroke="rgb(0,0,255)" stroke-width="0.20" />
  <path d="M 107.000 292.000 V 294.900 C 107.000 295.000 107.100 294.900 107.000 294.900 H 104.200 C 104.100 294.900 104.200 295.000 104.200 294.900 V 289.100 C 104.200 289.000 104.100 289.100 104.200 289.100 H 107.000 C 107.100 289.100 107.000 289.000 107.000 289.100 V 292.000 Z" stroke="rgb(0,0,255)" stroke-width="0.20" />
  <path d="M 19.200 280.900 C 19.200 280.344 19.360 279.800 19.660 279.332 C 19.961 278.864 20.390 278.493 20.895 278.262 C 21.401 278.031 21.962 277.950 22.513 278.030 C 23.063 278.109 23.579 278.344 23.999 278.708 C 24.419 279.072 24.726 279.550 24.883 280.083 C 25.039 280.616 25.039 281.184 24.883 281.717 C 24.726 282.250 24.419 282.728 23.999 283.092 C 23.579 283.456 23.063 283.691 22.513 283.770 C 21.962 283.850 21.401 283.769 20.895 283.538 C 20.390 283.307 19.961 282.936 19.660 282.468 C 19.360 282.000 19.200 281.456 19.200 280.900 Z" stroke="rgb(0,0,255)" stroke-width="0.20" />
  <path d="M 22.100 279.500 H 23.299 C 23.399 279.500 23.299 279.400 23.299 279.500 V 282.300 C 23.299 282.400 23.399 282.300 23.299 282.300 H 20.901 C 20.801 282.300 20.901 282.400 20.901 282.300 V 279.500 C 20.901 279.400 20.801 279.500 20.901 279.500 H 22.100 Z" stroke="rgb(0,0,255)" stroke-width="0.20" />
  <path d="M 13.200 292.000 V 289.100 C 13.200 289.000 13.100 289.100 13.200 289.100 H 16.000 C 16.100 289.100 16.000 289.000 16.000 289.100 V 294.900 C 16.000 295.000 16.100 294.900 16.000 294.900 H 13.200 C 13.100 294.900 13.200 295.000 13.200 294.900 V 292.000 Z" stroke="rgb(0,0,255)" stroke-width="0.20" />
  <path d="M 13.200 304.000 V 301.100 C 13.200 301.000 13.100 301.100 13.200 301.100 H 16.000 C 16.100 301.100 16.000 301.000 16.000 301.100 V 306.900 C 16.000 307.000 16.100 306.900 16.000 306.900 H 13.200 C 13.100 306.900 13.200 307.000 13.200 306.900 V 304.000 Z" stroke="rgb(0,0,255)" stroke-width="0.20" />
  <path d="M 13.200 316.000 V 313.100 C 13.200 313.000 13.100 313.100 13.200 313.100 H 16.000 C 16.100 313.100 16.000 313.000 16.000 313.100 V 318.900 C 16.000 319.000 16.100 318.900 16.000 318.900 H 13.200 C 13.100 318.900 13.200 319.000 13.200 318.900 V 316.000 Z" stroke="rgb(0,0,255)" stroke-width="0.20" />
  <path d="M 13.200 328.000 V 325.100 C 13.200 325.000 13.100 325.100 13.200 325.100 H 16.000 C 16.100 325.100 16.000 325.000 16.000 325.100 V 330.900 C 16.000 331.000 16.100 330.900 16.000 330.900 H 13.200 C 13.100 330.900 13.200 331.000 13.200 330.900 V 328.000 Z" stroke="rgb(0,0,255)" stroke-width="0.20" />
  <path d="M 13.200 340.000 V 337.100 C 13.200 337.000 13.100 337.100 13.200 337.100 H 16.000 C 16.100 337.100 16.000 337.000 16.000 337.100 V 342.900 C 16.000 343.000 16.100 342.900 16.000 342.900 H 13.200 C 13.100 342.900 13.200 343.000 13.200 342.900 V 340.000 Z" stroke="rgb(0,0,255)" stroke-width="0.20" />
  <path d="M 13.200 352.000 V 349.100 C 13.200 349.000 13.100 349.100 13.200 349.100 H 16.000 C 16.100 349.100 16.000 349.000 16.000 349.100 V 354.900 C 16.000 355.000 16.100 354.900 16.000 354.900 H 13.200 C 13.100 354.900 13.200 355.000 13.200 354.900 V 352.000 Z" stroke="rgb(0,0,255)" stroke-width="0.20" />
  <path d="M 13.200 364.000 V 361.100 C 13.200 361.000 13.100 361.100 13.200 361.100 H 16.000 C 16.100 361.100 16.000 361.000 16.000 361.100 V 366.900 C 16.000 367.000 16.100 366.900 16.000 366.900 H 13.200 C 13.100 366.900 13.200 367.000 13.200 366.900 V 364.000 Z" stroke="rgb(0,0,255)" stroke-width="0.20" />
</g>
<g id="p-3" style="fill:none;stroke-linecap:round;stroke-linejoin:round;">
  <text alignment-baseline="hanging" font-size="4px" style="font-family: sans-serif ; font-weight: normal; font-style: normal; fill: rgb(255,0,0)" text-anchor="middle" transform="matrix( 1.000 0.000 0.000 1.000 57.100 204.900 )" /><path d="M 13.100 268.900 H 24.000 C 24.100 268.900 24.000 268.800 24.000 268.900 V 271.800 C 24.000 271.855 24.045 271.900 24.100 271.900 H 30.100 C 30.155 271.900 30.200 271.855 30.200 271.800 V 268.900 C 30.200 268.800 30.100 268.900 30.200 268.900 H 36.000 C 36.100 268.900 36.000 268.800 36.000 268.900 V 271.800 C 36.000 271.855 36.045 271.900 36.100 271.900 H 42.100 C 42.155 271.900 42.200 271.855 42.200 271.800 V 268.900 C 42.200 268.800 42.100 268.900 42.200 268.900 H 48.000 C 48.100 268.900 48.000 268.800 48.000 268.900 V 271.800 C 48.000 271.855 48.045 271.900 48.100 271.900 H 54.100 C 54.155 271.900 54.200 271.855 54.200 271.800 V 268.900 C 54.200 268.800 54.100 268.900 54.200 268.900 H 60.000 C 60.100 268.900 60.000 268.800 60.000 268.900 V 271.800 C 60.000 271.855 60.045 271.900 60.100 271.900 H 66.100 C 66.155 271.900 66.200 271.855 66.200 271.800 V 268.900 C 66.200 268.800 66.100 268.900 66.200 268.900 H 72.000 C 72.100 268.900 72.000 268.800 72.000 268.900 V 271.800 C 72.000 271.855 72.045 271.900 72.100 271.900 H 78.100 C 78.155 271.900 78.200 271.855 78.200 271.800 V 268.900 C 78.200 268.800 78.100 268.900 78.200 268.900 H 84.000 C 84.100 268.900 84.000 268.800 84.000 268.900 V 271.800 C 84.000 271.855 84.045 271.900 84.100 271.900 H 90.100 C 90.155 271.900 90.200 271.855 90.200 271.800 V 268.900 C 90.200 268.800 90.100 268.900 90.200 268.900 H 101.100 C 101.155 268.900 101.200 268.855 101.200 268.800 V 257.900 C 101.200 257.800 101.100 257.900 101.200 257.900 H 104.100 C 104.155 257.900 104.200 257.855 104.200 257.800 V 251.800 C 104.200 251.745 104.155 251.700 104.100 251.700 H 101.200 C 101.100 251.700 101.200 251.800 101.200 251.700 V 245.900 C 101.200 245.800 101.100 245.900 101.200 245.900 H 104.100 C 104.155 245.900 104.200 245.855 104.200 245.800 V 239.800 C 104.200 239.745 104.155 239.700 104.100 239.700 H 101.200 C 101.100 239.700 101.200 239.800 101.200 239.700 V 233.900 C 101.200 233.800 101.100 233.900 101.200 233.900 H 104.100 C 104.155 233.900 104.200 233.855 104.200 233.800 V 227.800 C 104.200 227.745 104.155 227.700 104.100 227.700 H 101.200 C 101.100 227.700 101.200 227.800 101.200 227.700 V 221.900 C 101.200 221.800 101.100 221.900 101.200 221.900 H 104.100 C 104.155 221.900 104.200 221.855 104.200 221.800 V 215.800 C 104.200 215.745 104.155 215.700 104.100 215.700 H 101.200 C 101.100 215.700 101.200 215.800 101.200 215.700 V 209.900 C 101.200 209.800 101.100 209.900 101.200 209.900 H 104.100 C 104.155 209.900 104.200 209.855 104.200 209.800 V 203.800 C 104.200 203.745 104.155 203.700 104.100 203.700 H 101.200 C 101.100 203.700 101.200 203.800 101.200 203.700 V 197.900 C 101.200 197.800 101.100 197.900 101.200 197.900 H 104.100 C 104.155 197.900 104.200 197.855 104.200 197.800 V 191.800 C 104.200 191.745 104.155 191.700 104.100 191.700 H 101.200 C 101.100 191.700 101.200 191.800 101.200 191.700 V 185.900 C 101.200 185.800 101.100 185.900 101.200 185.900 H 104.100 C 104.155 185.900 104.200 185.855 104.200 185.800 V 179.800 C 104.200 179.745 104.155 179.700 104.100 179.700 H 101.200 C 101.100 179.700 101.200 179.800 101.200 179.700 V 173.900 C 101.200 173.800 101.100 173.900 101.200 173.900 H 104.100 C 104.155 173.900 104.200 173.855 104.200 173.800 V 167.800 C 104.200 167.745 104.155 167.700 104.100 167.700 H 101.200 C 101.100 167.700 101.200 167.800 101.200 167.700 V 161.900 C 101.200 161.800 101.100 161.900 101.200 161.900 H 104.100 C 104.155 161.900 104.200 161.855 104.200 161.800 V 155.800 C 104.200 155.745 104.155 155.700 104.100 155.700 H 101.200 C 101.100 155.700 101.200 155.800 101.200 155.700 V 144.800 C 101.200 144.745 101.155 144.700 101.100 144.700 H 90.200 C 90.100 144.700 90.200 144.800 90.200 144.700 V 141.800 C 90.200 141.745 90.155 141.700 90.100 141.700 H 84.100 C 84.045 141.700 84.000 141.745 84.000 141.800 V 144.700 C 84.000 144.800 84.100 144.700 84.000 144.700 H 78.200 C 78.100 144.700 78.200 144.800 78.200 144.700 V 141.800 C 78.200 141.745 78.155 141.700 78.100 141.700 H 72.100 C 72.045 141.700 72.000 141.745 72.000 141.800 V 144.700 C 72.000 144.800 72.100 144.700 72.000 144.700 H 66.200 C 66.100 144.700 66.200 144.800 66.200 144.700 V 141.800 C 66.200 141.745 66.155 141.700 66.100 141.700 H 60.100 C 60.045 141.700 60.000 141.745 60.000 141.800 V 144.700 C 60.000 144.800 60.100 144.700 60.000 144.700 H 54.200 C 54.100 144.700 54.200 144.800 54.200 144.700 V 141.800 C 54.200 141.745 54.155 141.700 54.100 141.700 H 48.100 C 48.045 141.700 48.000 141.745 48.000 141.800 V 144.700 C 48.000 144.800 48.100 144.700 48.000 144.700 H 42.200 C 42.100 144.700 42.200 144.800 42.200 144.700 V 141.800 C 42.200 141.745 42.155 141.700 42.100 141.700 H 36.100 C 36.045 141.700 36.000 141.745 36.000 141.800 V 144.700 C 36.000 144.800 36.100 144.700 36.000 144.700 H 30.200 C 30.100 144.700 30.200 144.800 30.200 144.700 V 141.800 C 30.200 141.745 30.155 141.700 30.100 141.700 H 24.100 C 24.045 141.700 24.000 141.745 24.000 141.800 V 144.700 C 24.000 144.800 24.100 144.700 24.000 144.700 H 13.100 C 13.045 144.700 13.000 144.745 13.000 144.800 V 155.700 C 13.000 155.800 13.100 155.700 13.000 155.700 H 10.100 C 10.045 155.700 10.000 155.745 10.000 155.800 V 161.800 C 10.000 161.855 10.045 161.900 10.100 161.900 H 13.000 C 13.100 161.900 13.000 161.800 13.000 161.900 V 167.700 C 13.000 167.800 13.100 167.700 13.000 167.700 H 10.100 C 10.045 167.700 10.000 167.745 10.000 167.800 V 173.800 C 10.000 173.855 10.045 173.900 10.100 173.900 H 13.000 C 13.100 173.900 13.000 173.800 13.000 173.900 V 179.700 C 13.000 179.800 13.100 179.700 13.000 179.700 H 10.100 C 10.045 179.700 10.000 179.745 10.000 179.800 V 185.800 C 10.000 185.855 10.045 185.900 10.100 185.900 H 13.000 C 13.100 185.900 13.000 185.800 13.000 185.900 V 191.700 C 13.000 191.800 13.100 191.700 13.000 191.700 H 10.100 C 10.045 191.700 10.000 191.745 10.000 191.800 V 197.800 C 10.000 197.855 10.045 197.900 10.100 197.900 H 13.000 C 13.100 197.900 13.000 197.800 13.000 197.900 V 203.700 C 13.000 203.800 13.100 203.700 13.000 203.700 H 10.100 C 10.045 203.700 10.000 203.745 10.000 203.800 V 209.800 C 10.000 209.855 10.045 209.900 10.100 209.900 H 13.000 C 13.100 209.900 13.000 209.800 13.000 209.900 V 215.700 C 13.000 215.800 13.100 215.700 13.000 215.700 H 10.100 C 10.045 215.700 10.000 215.745 10.000 215.800 V 221.800 C 10.000 221.855 10.045 221.900 10.100 221.900 H 13.000 C 13.100 221.900 13.000 221.800 13.000 221.900 V 227.700 C 13.000 227.800 13.100 227.700 13.000 227.700 H 10.100 C 10.045 227.700 10.000 227.745 10.000 227.800 V 233.800 C 10.000 233.855 10.045 233.900 10.100 233.900 H 13.000 C 13.100 233.900 13.000 233.800 13.000 233.900 V 239.700 C 13.000 239.800 13.100 239.700 13.000 239.700 H 10.100 C 10.045 239.700 10.000 239.745 10.000 239.800 V 245.800 C 10.000 245.855 10.045 245.900 10.100 245.900 H 13.000 C 13.100 245.900 13.000 245.800 13.000 245.900 V 251.700 C 13.000 251.800 13.100 251.700 13.000 251.700 H 10.100 C 10.045 251.700 10.000 251.745 10.000 251.800 V 257.800 C 10.000 257.855 10.045 257.900 10.100 257.900 H 13.000 C 13.100 257.900 13.000 257.800 13.000 257.900 V 268.800 C 13.000 268.855 13.045 268.900 13.100 268.900" stroke="rgb(0,0,0)" stroke-width="0.20" />
</g>
<g id="p-4" style="fill:none;stroke-linecap:round;stroke-linejoin:round;">
  <text alignment-baseline="hanging" font-size="4px" style="font-family: sans-serif ; font-weight: normal; font-style: normal; fill: rgb(255,0,0)" text-anchor="middle" transform="matrix( 1.000 0.000 0.000 1.000 55.600 71.700 )" /><path d="M 10.100 137.200 H 14.701 C 14.801 137.200 14.701 137.100 14.701 137.200 V 140.100 C 14.701 140.155 14.746 140.200 14.801 140.200 H 17.399 C 17.454 140.200 17.499 140.155 17.499 140.100 V 137.200 C 17.499 137.100 17.399 137.200 17.499 137.200 H 19.100 H 23.500 C 23.600 137.200 23.500 137.100 23.500 137.200 V 140.100 C 23.500 140.155 23.545 140.200 23.600 140.200 H 98.100 H 101.100 C 101.155 140.200 101.200 140.155 101.200 140.100 V 137.100 V 13.100 V 10.100 C 101.200 10.045 101.155 10.000 101.100 10.000 H 98.100 H 23.600 C 23.545 10.000 23.500 10.045 23.500 10.100 V 13.000 C 23.500 13.100 23.600 13.000 23.500 13.000 H 19.100 H 17.499 C 17.399 13.000 17.499 13.100 17.499 13.000 V 10.100 C 17.499 10.045 17.454 10.000 17.399 10.000 H 14.801 C 14.746 10.000 14.701 10.045 14.701 10.100 V 13.000 C 14.701 13.100 14.801 13.000 14.701 13.000 H 10.100 C 10.045 13.000 10.000 13.045 10.000 13.100 V 137.100 C 10.000 137.155 10.045 137.200 10.100 137.200" stroke="rgb(0,0,0)" stroke-width="0.20" />
</g>
<g id="p-5" style="fill:none;stroke-linecap:round;stroke-linejoin:round;">
  <text alignment-baseline="hanging" font-size="4px" style="font-family: sans-serif ; font-weight: normal; font-style: normal; fill: rgb(255,0,0)" text-anchor="middle" transform="matrix( 1.000 0.000 0.000 1.000 176.800 427.800 )" /><path d="M 114.800 475.300 H 125.800 C 125.855 475.300 125.900 475.255 125.900 475.200 V 472.300 C 125.900 472.200 125.800 472.300 125.900 472.300 H 131.700 C 131.800 472.300 131.700 472.200 131.700 472.300 V 475.200 C 131.700 475.255 131.745 475.300 131.800 475.300 H 137.800 C 137.855 475.300 137.900 475.255 137.900 475.200 V 472.300 C 137.900 472.200 137.800 472.300 137.900 472.300 H 143.700 C 143.800 472.300 143.700 472.200 143.700 472.300 V 475.200 C 143.700 475.255 143.745 475.300 143.800 475.300 H 149.800 C 149.855 475.300 149.900 475.255 149.900 475.200 V 472.300 C 149.900 472.200 149.800 472.300 149.900 472.300 H 155.700 C 155.800 472.300 155.700 472.200 155.700 472.300 V 475.200 C 155.700 475.255 155.745 475.300 155.800 475.300 H 161.800 C 161.855 475.300 161.900 475.255 161.900 475.200 V 472.300 C 161.900 472.200 161.800 472.300 161.900 472.300 H 167.700 C 167.800 472.300 167.700 472.200 167.700 472.300 V 475.200 C 167.700 475.255 167.745 475.300 167.800 475.300 H 173.800 C 173.855 475.300 173.900 475.255 173.900 475.200 V 472.300 C 173.900 472.200 173.800 472.300 173.900 472.300 H 179.700 C 179.800 472.300 179.700 472.200 179.700 472.300 V 475.200 C 179.700 475.255 179.745 475.300 179.800 475.300 H 185.800 C 185.855 475.300 185.900 475.255 185.900 475.200 V 472.300 C 185.900 472.200 185.800 472.300 185.900 472.300 H 191.700 C 191.800 472.300 191.700 472.200 191.700 472.300 V 475.200 C 191.700 475.255 191.745 475.300 191.800 475.300 H 197.800 C 197.855 475.300 197.900 475.255 197.900 475.200 V 472.300 C 197.900 472.200 197.800 472.300 197.900 472.300 H 203.700 C 203.800 472.300 203.700 472.200 203.700 472.300 V 475.200 C 203.700 475.255 203.745 475.300 203.800 475.300 H 209.800 C 209.855 475.300 209.900 475.255 209.900 475.200 V 472.300 C 209.900 472.200 209.800 472.300 209.900 472.300 H 215.700 C 215.800 472.300 215.700 472.200 215.700 472.300 V 475.200 C 215.700 475.255 215.745 475.300 215.800 475.300 H 221.800 C 221.855 475.300 221.900 475.255 221.900 475.200 V 472.300 C 221.900 472.200 221.800 472.300 221.900 472.300 H 227.700 C 227.800 472.300 227.700 472.200 227.700 472.300 V 475.200 C 227.700 475.255 227.745 475.300 227.800 475.300 H 238.800 C 238.855 475.300 238.900 475.255 238.900 475.200 V 468.800 C 238.900 468.700 238.800 468.800 238.900 468.800 H 241.800 C 241.855 468.800 241.900 468.755 241.900 468.700 V 462.700 C 241.900 462.645 241.855 462.600 241.800 462.600 H 238.900 C 238.800 462.600 238.900 462.700 238.900 462.600 V 456.800 C 238.900 456.700 238.800 456.800 238.900 456.800 H 241.800 C 241.855 456.800 241.900 456.755 241.900 456.700 V 450.700 C 241.900 450.645 241.855 450.600 241.800 450.600 H 238.900 C 238.800 450.600 238.900 450.700 238.900 450.600 V 444.800 C 238.900 444.700 238.800 444.800 238.900 444.800 H 241.800 C 241.855 444.800 241.900 444.755 241.900 444.700 V 438.700 C 241.900 438.645 241.855 438.600 241.800 438.600 H 238.900 C 238.800 438.600 238.900 438.700 238.900 438.600 V 432.800 C 238.900 432.700 238.800 432.800 238.900 432.800 H 241.800 C 241.855 432.800 241.900 432.755 241.900 432.700 V 426.700 C 241.900 426.645 241.855 426.600 241.800 426.600 H 238.900 C 238.800 426.600 238.900 426.700 238.900 426.600 V 420.800 C 238.900 420.700 238.800 420.800 238.900 420.800 H 241.800 C 241.855 420.800 241.900 420.755 241.900 420.700 V 414.700 C 241.900 414.645 241.855 414.600 241.800 414.600 H 238.900 C 238.800 414.600 238.900 414.700 238.900 414.600 V 408.800 C 238.900 408.700 238.800 408.800 238.900 408.800 H 241.800 C 241.855 408.800 241.900 408.755 241.900 408.700 V 402.700 C 241.900 402.645 241.855 402.600 241.800 402.600 H 238.900 C 238.800 402.600 238.900 402.700 238.900 402.600 V 396.800 C 238.900 396.700 238.800 396.800 238.900 396.800 H 241.800 C 241.855 396.800 241.900 396.755 241.900 396.700 V 390.700 C 241.900 390.645 241.855 390.600 241.800 390.600 H 238.900 C 238.800 390.600 238.900 390.700 238.900 390.600 V 384.200 C 238.900 384.145 238.855 384.100 238.800 384.100 H 114.800 C 114.745 384.100 114.700 384.145 114.700 384.200 V 390.600 C 114.700 390.700 114.800 390.600 114.700 390.600 H 111.800 C 111.745 390.600 111.700 390.645 111.700 390.700 V 396.700 C 111.700 396.755 111.745 396.800 111.800 396.800 H 114.700 C 114.800 396.800 114.700 396.700 114.700 396.800 V 402.600 C 114.700 402.700 114.800 402.600 114.700 402.600 H 111.800 C 111.745 402.600 111.700 402.645 111.700 402.700 V 408.700 C 111.700 408.755 111.745 408.800 111.800 408.800 H 114.700 C 114.800 408.800 114.700 408.700 114.700 408.800 V 414.600 C 114.700 414.700 114.800 414.600 114.700 414.600 H 111.800 C 111.745 414.600 111.700 414.645 111.700 414.700 V 420.700 C 111.700 420.755 111.745 420.800 111.800 420.800 H 114.700 C 114.800 420.800 114.700 420.700 114.700 420.800 V 426.600 C 114.700 426.700 114.800 426.600 114.700 426.600 H 111.800 C 111.745 426.600 111.700 426.645 111.700 426.700 V 432.700 C 111.700 432.755 111.745 432.800 111.800 432.800 H 114.700 C 114.800 432.800 114.700 432.700 114.700 432.800 V 438.600 C 114.700 438.700 114.800 438.600 114.700 438.600 H 111.800 C 111.745 438.600 111.700 438.645 111.700 438.700 V 444.700 C 111.700 444.755 111.745 444.800 111.800 444.800 H 114.700 C 114.800 444.800 114.700 444.700 114.700 444.800 V 450.600 C 114.700 450.700 114.800 450.600 114.700 450.600 H 111.800 C 111.745 450.600 111.700 450.645 111.700 450.700 V 456.700 C 111.700 456.755 111.745 456.800 111.800 456.800 H 114.700 C 114.800 456.800 114.700 456.700 114.700 456.800 V 462.600 C 114.700 462.700 114.800 462.600 114.700 462.600 H 111.800 C 111.745 462.600 111.700 462.645 111.700 462.700 V 468.700 C 111.700 468.755 111.745 468.800 111.800 468.800 H 114.700 C 114.800 468.800 114.700 468.700 114.700 468.800 V 475.200 C 114.700 475.255 114.745 475.300 114.800 475.300" stroke="rgb(0,0,0)" stroke-width="0.20" />
</g>
<g id="p-6" style="fill:none;stroke-linecap:round;stroke-linejoin:round;">
  <text alignment-baseline="hanging" font-size="4px" style="font-family: sans-serif ; font-weight: normal; font-style: normal; fill: rgb(255,0,0)" text-anchor="middle" transform="matrix( 1.000 0.000 0.000 1.000 176.800 335.100 )" /><path d="M 114.800 382.600 H 125.800 C 125.855 382.600 125.900 382.555 125.900 382.500 V 379.600 C 125.900 379.500 125.800 379.600 125.900 379.600 H 131.700 C 131.800 379.600 131.700 379.500 131.700 379.600 V 382.500 C 131.700 382.555 131.745 382.600 131.800 382.600 H 137.800 C 137.855 382.600 137.900 382.555 137.900 382.500 V 379.600 C 137.900 379.500 137.800 379.600 137.900 379.600 H 143.700 C 143.800 379.600 143.700 379.500 143.700 379.600 V 382.500 C 143.700 382.555 143.745 382.600 143.800 382.600 H 149.800 C 149.855 382.600 149.900 382.555 149.900 382.500 V 379.600 C 149.900 379.500 149.800 379.600 149.900 379.600 H 155.700 C 155.800 379.600 155.700 379.500 155.700 379.600 V 382.500 C 155.700 382.555 155.745 382.600 155.800 382.600 H 161.800 C 161.855 382.600 161.900 382.555 161.900 382.500 V 379.600 C 161.900 379.500 161.800 379.600 161.900 379.600 H 167.700 C 167.800 379.600 167.700 379.500 167.700 379.600 V 382.500 C 167.700 382.555 167.745 382.600 167.800 382.600 H 173.800 C 173.855 382.600 173.900 382.555 173.900 382.500 V 379.600 C 173.900 379.500 173.800 379.600 173.900 379.600 H 179.700 C 179.800 379.600 179.700 379.500 179.700 379.600 V 382.500 C 179.700 382.555 179.745 382.600 179.800 382.600 H 185.800 C 185.855 382.600 185.900 382.555 185.900 382.500 V 379.600 C 185.900 379.500 185.800 379.600 185.900 379.600 H 191.700 C 191.800 379.600 191.700 379.500 191.700 379.600 V 382.500 C 191.700 382.555 191.745 382.600 191.800 382.600 H 197.800 C 197.855 382.600 197.900 382.555 197.900 382.500 V 379.600 C 197.900 379.500 197.800 379.600 197.900 379.600 H 203.700 C 203.800 379.600 203.700 379.500 203.700 379.600 V 382.500 C 203.700 382.555 203.745 382.600 203.800 382.600 H 209.800 C 209.855 382.600 209.900 382.555 209.900 382.500 V 379.600 C 209.900 379.500 209.800 379.600 209.900 379.600 H 215.700 C 215.800 379.600 215.700 379.500 215.700 379.600 V 382.500 C 215.700 382.555 215.745 382.600 215.800 382.600 H 221.800 C 221.855 382.600 221.900 382.555 221.900 382.500 V 379.600 C 221.900 379.500 221.800 379.600 221.900 379.600 H 227.700 C 227.800 379.600 227.700 379.500 227.700 379.600 V 382.500 C 227.700 382.555 227.745 382.600 227.800 382.600 H 238.800 C 238.855 382.600 238.900 382.555 238.900 382.500 V 376.100 C 238.900 376.000 238.800 376.100 238.900 376.100 H 241.800 C 241.855 376.100 241.900 376.055 241.900 376.000 V 370.000 C 241.900 369.945 241.855 369.900 241.800 369.900 H 238.900 C 238.800 369.900 238.900 370.000 238.900 369.900 V 364.100 C 238.900 364.000 238.800 364.100 238.900 364.100 H 241.800 C 241.855 364.100 241.900 364.055 241.900 364.000 V 358.000 C 241.900 357.945 241.855 357.900 241.800 357.900 H 238.900 C 238.800 357.900 238.900 358.000 238.900 357.900 V 352.100 C 238.900 352.000 238.800 352.100 238.900 352.100 H 241.800 C 241.855 352.100 241.900 352.055 241.900 352.000 V 346.000 C 241.900 345.945 241.855 345.900 241.800 345.900 H 238.900 C 238.800 345.900 238.900 346.000 238.900 345.900 V 340.100 C 238.900 340.000 238.800 340.100 238.900 340.100 H 241.800 C 241.855 340.100 241.900 340.055 241.900 340.000 V 334.000 C 241.900 333.945 241.855 333.900 241.800 333.900 H 238.900 C 238.800 333.900 238.900 334.000 238.900 333.900 V 328.100 C 238.900 328.000 238.800 328.100 238.900 328.100 H 241.800 C 241.855 328.100 241.900 328.055 241.900 328.000 V 322.000 C 241.900 321.945 241.855 321.900 241.800 321.900 H 238.900 C 238.800 321.900 238.900 322.000 238.900 321.900 V 316.100 C 238.900 316.000 238.800 316.100 238.900 316.100 H 241.800 C 241.855 316.100 241.900 316.055 241.900 316.000 V 310.000 C 241.900 309.945 241.855 309.900 241.800 309.900 H 238.900 C 238.800 309.900 238.900 310.000 238.900 309.900 V 304.100 C 238.900 304.000 238.800 304.100 238.900 304.100 H 241.800 C 241.855 304.100 241.900 304.055 241.900 304.000 V 298.000 C 241.900 297.945 241.855 297.900 241.800 297.900 H 238.900 C 238.800 297.900 238.900 298.000 238.900 297.900 V 291.500 C 238.900 291.445 238.855 291.400 238.800 291.400 H 114.800 C 114.745 291.400 114.700 291.445 114.700 291.500 V 297.900 C 114.700 298.000 114.800 297.900 114.700 297.900 H 111.800 C 111.745 297.900 111.700 297.945 111.700 298.000 V 304.000 C 111.700 304.055 111.745 304.100 111.800 304.100 H 114.700 C 114.800 304.100 114.700 304.000 114.700 304.100 V 309.900 C 114.700 310.000 114.800 309.900 114.700 309.900 H 111.800 C 111.745 309.900 111.700 309.945 111.700 310.000 V 316.000 C 111.700 316.055 111.745 316.100 111.800 316.100 H 114.700 C 114.800 316.100 114.700 316.000 114.700 316.100 V 321.900 C 114.700 322.000 114.800 321.900 114.700 321.900 H 111.800 C 111.745 321.900 111.700 321.945 111.700 322.000 V 328.000 C 111.700 328.055 111.745 328.100 111.800 328.100 H 114.700 C 114.800 328.100 114.700 328.000 114.700 328.100 V 333.900 C 114.700 334.000 114.800 333.900 114.700 333.900 H 111.800 C 111.745 333.900 111.700 333.945 111.700 334.000 V 340.000 C 111.700 340.055 111.745 340.100 111.800 340.100 H 114.700 C 114.800 340.100 114.700 340.000 114.700 340.100 V 345.900 C 114.700 346.000 114.800 345.900 114.700 345.900 H 111.800 C 111.745 345.900 111.700 345.945 111.700 346.000 V 352.000 C 111.700 352.055 111.745 352.100 111.800 352.100 H 114.700 C 114.800 352.100 114.700 352.000 114.700 352.100 V 357.900 C 114.700 358.000 114.800 357.900 114.700 357.900 H 111.800 C 111.745 357.900 111.700 357.945 111.700 358.000 V 364.000 C 111.700 364.055 111.745 364.100 111.800 364.100 H 114.700 C 114.800 364.100 114.700 364.000 114.700 364.100 V 369.900 C 114.700 370.000 114.800 369.900 114.700 369.900 H 111.800 C 111.745 369.900 111.700 369.945 111.700 370.000 V 376.000 C 111.700 376.055 111.745 376.100 111.800 376.100 H 114.700 C 114.800 376.100 114.700 376.000 114.700 376.100 V 382.500 C 114.700 382.555 114.745 382.600 114.800 382.600" stroke="rgb(0,0,0)" stroke-width="0.20" />
</g>
</svg>