<?xml version="1.0" encoding="UTF-8" standalone="no"?> <!-- Created with Vectornator for iOS (http://vectornator.io/) --><!DOCTYPE svg PUBLIC "-//W3C//DTD SVG 1.1//EN" "http://www.w3.org/Graphics/SVG/1.1/DTD/svg11.dtd">
<svg style="fill-rule:nonzero;clip-rule:evenodd;stroke-linecap:round;stroke-linejoin:round;" version="1.1" viewBox="0 0 714.136 1408.99" xml:space="preserve" xmlns="http://www.w3.org/2000/svg" xmlns:vectornator="http://vectornator.io" xmlns:xlink="http://www.w3.org/1999/xlink">
<metadata>
<vectornator:setting key="IsTimeLapseWatermarkDisabled" value="false"/>
<vectornator:setting key="UndoHistoryDisabled" value="true"/>
<vectornator:setting key="VNDimensionsVisible" value="true"/>
<vectornator:setting key="VNSnapToGuides" value="true"/>
<vectornator:setting key="WDCMYKEnabledKey" value="false"/>
<vectornator:setting key="WDDisplayWhiteBackground" value="false"/>
<vectornator:setting key="WDDynamicGuides" value="false"/>
<vectornator:setting key="WDGuidesVisible" value="true"/>
<vectornator:setting key="WDIsolateActiveLayer" value="false"/>
<vectornator:setting key="WDOutlineMode" value="false"/>
<vectornator:setting key="WDRulersVisible" value="true"/>
<vectornator:setting key="WDSnapToEdges" value="false"/>
<vectornator:setting key="WDSnapToGrid" value="false"/>
<vectornator:setting key="WDSnapToPoints" value="false"/>
<vectornator:setting key="WDUnits" value="Millimeters"/>
</metadata>
<defs/>
<g id="p-0" vectornator:layerName="p-0">
<path d="M28.6335 1380.65L312.133 1380.65L312.133 1352.3L28.6335 1352.3L28.6335 1380.65Z" fill="none" opacity="1" stroke="#000000" stroke-linecap="round" stroke-linejoin="round" stroke-width="0.2"/>
<text fill="#000000" font-family="sans-serif" font-size="8" opacity="1" text-anchor="middle" transform="matrix(1 0 0 1 -13.3379 -8)" vectornator:text="100mm" vectornator:width="29.6758" x="0" y="0">
<tspan textLength="26.6758" x="14.8379" y="8">
100mm</tspan>
</text>
</g>
<g id="p-1" vectornator:layerName="p-1">
<path d="M37.1385 1347.48L75.978 1347.48C76.1339 1347.48 76.2615 1347.35 76.2615 1347.19L76.2615 1338.97C76.2615 1338.69 75.978 1338.97 76.2615 1338.97L94.4055 1338.97C94.689 1338.97 94.4055 1338.69 94.4055 1338.97L94.4055 1347.19C94.4055 1347.35 94.5331 1347.48 94.689 1347.48L109.998 1347.48C110.154 1347.48 110.282 1347.35 110.282 1347.19L110.282 1338.97C110.282 1338.69 109.998 1338.97 110.282 1338.97L128.425 1338.97C128.709 1338.97 128.425 1338.69 128.425 1338.97L128.425 1347.19C128.425 1347.35 128.553 1347.48 128.709 1347.48L144.018 1347.48C144.174 1347.48 144.302 1347.35 144.302 1347.19L144.302 1338.97C144.302 1338.69 144.018 1338.97 144.302 1338.97L162.446 1338.97C162.729 1338.97 162.446 1338.69 162.446 1338.97L162.446 1347.19C162.446 1347.35 162.573 1347.48 162.729 1347.48L178.038 1347.48C178.194 1347.48 178.322 1347.35 178.322 1347.19L178.322 1338.97C178.322 1338.69 178.038 1338.97 178.322 1338.97L196.466 1338.97C196.749 1338.97 196.466 1338.69 196.466 1338.97L196.466 1347.19C196.466 1347.35 196.593 1347.48 196.749 1347.48L212.058 1347.48C212.214 1347.48 212.342 1347.35 212.342 1347.19L212.342 1338.97C212.342 1338.69 212.058 1338.97 212.342 1338.97L230.486 1338.97C230.769 1338.97 230.486 1338.69 230.486 1338.97L230.486 1347.19C230.486 1347.35 230.613 1347.48 230.769 1347.48L246.078 1347.48C246.234 1347.48 246.362 1347.35 246.362 1347.19L246.362 1338.97C246.362 1338.69 246.078 1338.97 246.362 1338.97L264.506 1338.97C264.789 1338.97 264.506 1338.69 264.506 1338.97L264.506 1347.19C264.506 1347.35 264.633 1347.48 264.789 1347.48L303.628 1347.48L312.133 1347.48C312.289 1347.48 312.417 1347.35 312.417 1347.19L312.417 1312.61C312.417 1312.45 312.289 1312.32 312.133 1312.32L303.912 1312.32C303.628 1312.32 303.912 1312.61 303.912 1312.32L303.912 1294.18C303.912 1293.89 303.628 1294.18 303.912 1294.18L312.133 1294.18C312.289 1294.18 312.417 1294.05 312.417 1293.89L312.417 1278.59C312.417 1278.43 312.289 1278.3 312.133 1278.3L303.912 1278.3C303.628 1278.3 303.912 1278.59 303.912 1278.3L303.912 1260.16C303.912 1259.87 303.628 1260.16 303.912 1260.16L312.133 1260.16C312.289 1260.16 312.417 1260.03 312.417 1259.87L312.417 1244.57C312.417 1244.41 312.289 1244.28 312.133 1244.28L303.912 1244.28C303.628 1244.28 303.912 1244.57 303.912 1244.28L303.912 1226.14C303.912 1225.85 303.628 1226.14 303.912 1226.14L312.133 1226.14C312.289 1226.14 312.417 1226.01 312.417 1225.85L312.417 1210.55C312.417 1210.39 312.289 1210.26 312.133 1210.26L303.912 1210.26C303.628 1210.26 303.912 1210.55 303.912 1210.26L303.912 1192.12C303.912 1191.83 303.628 1192.12 303.912 1192.12L312.133 1192.12C312.289 1192.12 312.417 1191.99 312.417 1191.83L312.417 1176.53C312.417 1176.37 312.289 1176.24 312.133 1176.24L303.912 1176.24C303.628 1176.24 303.912 1176.53 303.912 1176.24L303.912 1158.1C303.912 1157.81 303.628 1158.1 303.912 1158.1L312.133 1158.1C312.289 1158.1 312.417 1157.97 312.417 1157.81L312.417 1142.51C312.417 1142.35 312.289 1142.22 312.133 1142.22L303.912 1142.22C303.628 1142.22 303.912 1142.51 303.912 1142.22L303.912 1124.08C303.912 1123.79 303.628 1124.08 303.912 1124.08L312.133 1124.08C312.289 1124.08 312.417 1123.95 312.417 1123.79L312.417 1089.21C312.417 1089.05 312.289 1088.92 312.133 1088.92L303.912 1088.92C303.628 1088.92 303.912 1089.21 303.912 1088.92L303.912 1084.95C303.912 1081.92 303.113 1078.94 301.596 1076.31C300.076 1073.68 297.893 1071.5 295.265 1069.98C292.637 1068.46 289.655 1067.66 286.618 1067.66C283.582 1067.66 280.6 1068.46 277.972 1069.98C275.344 1071.5 273.161 1073.68 271.641 1076.31C270.124 1078.94 269.325 1081.92 269.325 1084.95C269.325 1085.65 269.141 1086.34 268.792 1086.94C268.446 1087.54 267.944 1088.04 267.341 1088.39C266.737 1088.74 266.053 1088.92 265.356 1088.92L37.1385 1088.92L28.6335 1088.92C28.4776 1088.92 28.35 1089.05 28.35 1089.21L28.35 1123.79C28.35 1123.95 28.4776 1124.08 28.6335 1124.08L36.855 1124.08C37.1385 1124.08 36.855 1123.79 36.855 1124.08L36.855 1142.22C36.855 1142.51 37.1385 1142.22 36.855 1142.22L28.6335 1142.22C28.4776 1142.22 28.35 1142.35 28.35 1142.51L28.35 1157.81C28.35 1157.97 28.4776 1158.1 28.6335 1158.1L36.855 1158.1C37.1385 1158.1 36.855 1157.81 36.855 1158.1L36.855 1176.24C36.855 1176.53 37.1385 1176.24 36.855 1176.24L28.6335 1176.24C28.4776 1176.24 28.35 1176.37 28.35 1176.53L28.35 1191.83C28.35 1191.99 28.4776 1192.12 28.6335 1192.12L36.855 1192.12C37.1385 1192.12 36.855 1191.83 36.855 1192.12L36.855 1210.26C36.855 1210.55 37.1385 1210.26 36.855 1210.26L28.6335 1210.26C28.4776 1210.26 28.35 1210.39 28.35 1210.55L28.35 1225.85C28.35 1226.01 28.4776 1226.14 28.6335 1226.14L36.855 1226.14C37.1385 1226.14 36.855 1225.85 36.855 1226.14L36.855 1244.28C36.855 1244.57 37.1385 1244.28 36.855 1244.28L28.6335 1244.28C28.4776 1244.28 28.35 1244.41 28.35 1244.57L28.35 1259.87C28.35 1260.03 28.4776 1260.16 28.6335 1260.16L36.855 1260.16C37.1385 1260.16 36.855 1259.87 36.855 1260.16L36.855 1278.3C36.855 1278.59 37.1385 1278.3 36.855 1278.3L28.6335 1278.3C28.4776 1278.3 28.35 1278.43 28.35 1278.59L28.35 1293.89C28.35 1294.05 28.4776 1294.18 28.6335 1294.18L36.855 1294.18C37.1385 1294.18 36.855 1293.89 36.855 1294.18L36.855 1312.32C36.855 1312.61 37.1385 1312.32 36.855 1312.32L28.6335 1312.32C28.4776 1312.32 28.35 1312.45 28.35 1312.61L28.35 1347.19C28.35 1347.35 28.4776 1347.48 28.6335 1347.48L37.1385 1347.48" fill="none" opacity="1" stroke="#000000" stroke-linecap="round" stroke-linejoin="round" stroke-width="0.2"/>
<path d="M278.397 1084.67C278.397 1083.09 278.851 1081.55 279.701 1080.23C280.554 1078.9 281.771 1077.85 283.202 1077.19C284.637 1076.54 286.227 1076.31 287.789 1076.53C289.349 1076.76 290.811 1077.42 292.002 1078.46C293.193 1079.49 294.063 1080.84 294.508 1082.35C294.951 1083.87 294.951 1085.48 294.508 1086.99C294.063 1088.5 293.193 1089.85 292.002 1090.89C290.811 1091.92 289.349 1092.58 287.789 1092.81C286.227 1093.03 284.637 1092.8 283.202 1092.15C281.771 1091.49 280.554 1090.44 279.701 1089.12C278.851 1087.79 278.397 1086.25 278.397 1084.67Z" fill="none" opacity="1" stroke="#0000ff" stroke-linecap="round" stroke-linejoin="round" stroke-width="0.2"/>
<path d="M286.618 1080.7L290.018 1080.7C290.301 1080.7 290.018 1080.42 290.018 1080.7L290.018 1088.64C290.018 1088.92 290.301 1088.64 290.018 1088.64L283.219 1088.64C282.936 1088.64 283.219 1088.92 283.219 1088.64L283.219 1080.7C283.219 1080.42 282.936 1080.7 283.219 1080.7L286.618 1080.7Z" fill="none" opacity="1" stroke="#0000ff" stroke-linecap="round" stroke-linejoin="round" stroke-width="0.2"/>
</g>
<g id="p-2" vectornator:layerName="p-2">
<path d="M37.1385 1059.16L75.978 1059.16C76.1339 1059.16 76.2615 1059.03 76.2615 1058.87L76.2615 1050.65C76.2615 1050.37 75.978 1050.65 76.2615 1050.65L94.4055 1050.65C94.689 1050.65 94.4055 1050.37 94.4055 1050.65L94.4055 1058.87C94.4055 1059.03 94.5331 1059.16 94.689 1059.16L109.998 1059.16C110.154 1059.16 110.282 1059.03 110.282 1058.87L110.282 1050.65C110.282 1050.37 109.998 1050.65 110.282 1050.65L128.425 1050.65C128.709 1050.65 128.425 1050.37 128.425 1050.65L128.425 1058.87C128.425 1059.03 128.553 1059.16 128.709 1059.16L144.018 1059.16C144.174 1059.16 144.302 1059.03 144.302 1058.87L144.302 1050.65C144.302 1050.37 144.018 1050.65 144.302 1050.65L162.446 1050.65C162.729 1050.65 162.446 1050.37 162.446 1050.65L162.446 1058.87C162.446 1059.03 162.573 1059.16 162.729 1059.16L178.038 1059.16C178.194 1059.16 178.322 1059.03 178.322 1058.87L178.322 1050.65C178.322 1050.37 178.038 1050.65 178.322 1050.65L196.466 1050.65C196.749 1050.65 196.466 1050.37 196.466 1050.65L196.466 1058.87C196.466 1059.03 196.593 1059.16 196.749 1059.16L212.058 1059.16C212.214 1059.16 212.342 1059.03 212.342 1058.87L212.342 1050.65C212.342 1050.37 212.058 1050.65 212.342 1050.65L230.486 1050.65C230.769 1050.65 230.486 1050.37 230.486 1050.65L230.486 1058.87C230.486 1059.03 230.613 1059.16 230.769 1059.16L246.078 1059.16C246.234 1059.16 246.362 1059.03 246.362 1058.87L246.362 1050.65C246.362 1050.37 246.078 1050.65 246.362 1050.65L264.506 1050.65C264.789 1050.65 264.506 1050.37 264.506 1050.65L264.506 1058.87C264.506 1059.03 264.633 1059.16 264.789 1059.16L303.628 1059.16L312.133 1059.16C312.289 1059.16 312.417 1059.03 312.417 1058.87L312.417 1024.29C312.417 1024.13 312.289 1024 312.133 1024L303.912 1024C303.628 1024 303.912 1024.29 303.912 1024L303.912 1005.86C303.912 1005.57 303.628 1005.86 303.912 1005.86L312.133 1005.86C312.289 1005.86 312.417 1005.73 312.417 1005.57L312.417 990.265C312.417 990.11 312.289 989.982 312.133 989.982L303.912 989.982C303.628 989.982 303.912 990.265 303.912 989.982L303.912 971.838C303.912 971.555 303.628 971.838 303.912 971.838L312.133 971.838C312.289 971.838 312.417 971.71 312.417 971.555L312.417 956.245C312.417 956.09 312.289 955.962 312.133 955.962L303.912 955.962C303.628 955.962 303.912 956.245 303.912 955.962L303.912 937.818C303.912 937.535 303.628 937.818 303.912 937.818L312.133 937.818C312.289 937.818 312.417 937.69 312.417 937.535L312.417 922.225C312.417 922.07 312.289 921.942 312.133 921.942L303.912 921.942C303.628 921.942 303.912 922.225 303.912 921.942L303.912 903.798C303.912 903.515 303.628 903.798 303.912 903.798L312.133 903.798C312.289 903.798 312.417 903.67 312.417 903.515L312.417 888.205C312.417 888.05 312.289 887.922 312.133 887.922L303.912 887.922C303.628 887.922 303.912 888.205 303.912 887.922L303.912 869.778C303.912 869.495 303.628 869.778 303.912 869.778L312.133 869.778C312.289 869.778 312.417 869.65 312.417 869.495L312.417 854.185C312.417 854.03 312.289 853.902 312.133 853.902L303.912 853.902C303.628 853.902 303.912 854.185 303.912 853.902L303.912 835.758C303.912 835.475 303.628 835.758 303.912 835.758L312.133 835.758C312.289 835.758 312.417 835.63 312.417 835.475L312.417 800.888C312.417 800.732 312.289 800.604 312.133 800.604L303.628 800.604L75.411 800.604C74.7136 800.604 74.0304 800.42 73.4265 800.071C72.8226 799.725 72.3209 799.223 71.975 798.62C71.6263 798.016 71.442 797.332 71.442 796.635C71.442 793.599 70.6425 790.616 69.1258 787.988C67.6062 785.36 65.4233 783.177 62.7952 781.658C60.1672 780.141 57.1848 779.341 54.1485 779.341C51.1122 779.341 48.1298 780.141 45.5017 781.658C42.8737 783.177 40.6908 785.36 39.1712 787.988C37.6545 790.616 36.855 793.599 36.855 796.635L36.855 800.604C36.855 800.888 37.1385 800.604 36.855 800.604L28.6335 800.604C28.4776 800.604 28.35 800.732 28.35 800.888L28.35 835.475C28.35 835.63 28.4776 835.758 28.6335 835.758L36.855 835.758C37.1385 835.758 36.855 835.475 36.855 835.758L36.855 853.902C36.855 854.185 37.1385 853.902 36.855 853.902L28.6335 853.902C28.4776 853.902 28.35 854.03 28.35 854.185L28.35 869.495C28.35 869.65 28.4776 869.778 28.6335 869.778L36.855 869.778C37.1385 869.778 36.855 869.495 36.855 869.778L36.855 887.922C36.855 888.205 37.1385 887.922 36.855 887.922L28.6335 887.922C28.4776 887.922 28.35 888.05 28.35 888.205L28.35 903.515C28.35 903.67 28.4776 903.798 28.6335 903.798L36.855 903.798C37.1385 903.798 36.855 903.515 36.855 903.798L36.855 921.942C36.855 922.225 37.1385 921.942 36.855 921.942L28.6335 921.942C28.4776 921.942 28.35 922.07 28.35 922.225L28.35 937.535C28.35 937.69 28.4776 937.818 28.6335 937.818L36.855 937.818C37.1385 937.818 36.855 937.535 36.855 937.818L36.855 955.962C36.855 956.245 37.1385 955.962 36.855 955.962L28.6335 955.962C28.4776 955.962 28.35 956.09 28.35 956.245L28.35 971.555C28.35 971.71 28.4776 971.838 28.6335 971.838L36.855 971.838C37.1385 971.838 36.855 971.555 36.855 971.838L36.855 989.982C36.855 990.265 37.1385 989.982 36.855 989.982L28.6335 989.982C28.4776 989.982 28.35 990.11 28.35 990.265L28.35 1005.57C28.35 1005.73 28.4776 1005.86 28.6335 1005.86L36.855 1005.86C37.1385 1005.86 36.855 1005.57 36.855 1005.86L36.855 1024C36.855 1024.29 37.1385 1024 36.855 1024L28.6335 1024C28.4776 1024 28.35 1024.13 28.35 1024.29L28.35 1058.87C28.35 1059.03 28.4776 1059.16 28.6335 1059.16L37.1385 1059.16" fill="none" opacity="1" stroke="#000000" stroke-linecap="round" stroke-linejoin="round" stroke-width="0.2"/>
<path d="M45.927 796.351C45.927 794.775 46.3806 793.233 47.2311 791.906C48.0844 790.579 49.3006 789.528 50.7323 788.873C52.1668 788.218 53.7573 787.988 55.3194 788.215C56.8786 788.439 58.3415 789.105 59.5322 790.137C60.7229 791.169 61.5932 792.524 62.0383 794.035C62.4806 795.546 62.4806 797.157 62.0383 798.668C61.5932 800.179 60.7229 801.534 59.5322 802.566C58.3415 803.598 56.8786 804.264 55.3194 804.488C53.7573 804.715 52.1668 804.485 50.7323 803.83C49.3006 803.175 48.0844 802.124 47.2311 800.797C46.3806 799.47 45.927 797.928 45.927 796.351Z" fill="none" opacity="1" stroke="#0000ff" stroke-linecap="round" stroke-linejoin="round" stroke-width="0.2"/>
<path d="M54.1485 792.383L57.5477 792.383C57.8312 792.383 57.5477 792.099 57.5477 792.383L57.5477 800.32C57.5477 800.604 57.8312 800.32 57.5477 800.32L50.7493 800.32C50.4658 800.32 50.7493 800.604 50.7493 800.32L50.7493 792.383C50.7493 792.099 50.4658 792.383 50.7493 792.383L54.1485 792.383Z" fill="none" opacity="1" stroke="#0000ff" stroke-linecap="round" stroke-linejoin="round" stroke-width="0.2"/>
<path d="M79.4644 830.869L119.154 830.869L119.154 921.589L79.4644 921.589L79.4644 830.869Z" fill="none" opacity="1" stroke="#000000" stroke-linecap="round" stroke-linejoin="round" stroke-width="0.2"/>
</g>
<g id="p-3" vectornator:layerName="p-3">
<path d="M37.1385 762.331L76.545 762.331C76.8285 762.331 76.545 762.048 76.545 762.331L76.545 770.553C76.545 770.709 76.6726 770.836 76.8285 770.836L93.8385 770.836C93.9944 770.836 94.122 770.709 94.122 770.553L94.122 762.331C94.122 762.048 93.8385 762.331 94.122 762.331L110.565 762.331C110.848 762.331 110.565 762.048 110.565 762.331L110.565 770.553C110.565 770.709 110.693 770.836 110.848 770.836L127.858 770.836C128.014 770.836 128.142 770.709 128.142 770.553L128.142 762.331C128.142 762.048 127.858 762.331 128.142 762.331L144.585 762.331C144.868 762.331 144.585 762.048 144.585 762.331L144.585 770.553C144.585 770.709 144.713 770.836 144.868 770.836L161.878 770.836C162.034 770.836 162.162 770.709 162.162 770.553L162.162 762.331C162.162 762.048 161.878 762.331 162.162 762.331L178.605 762.331C178.888 762.331 178.605 762.048 178.605 762.331L178.605 770.553C178.605 770.709 178.733 770.836 178.888 770.836L195.898 770.836C196.054 770.836 196.182 770.709 196.182 770.553L196.182 762.331C196.182 762.048 195.898 762.331 196.182 762.331L212.625 762.331C212.908 762.331 212.625 762.048 212.625 762.331L212.625 770.553C212.625 770.709 212.753 770.836 212.908 770.836L229.918 770.836C230.074 770.836 230.202 770.709 230.202 770.553L230.202 762.331C230.202 762.048 229.918 762.331 230.202 762.331L246.645 762.331C246.928 762.331 246.645 762.048 246.645 762.331L246.645 770.553C246.645 770.709 246.773 770.836 246.928 770.836L263.938 770.836C264.094 770.836 264.222 770.709 264.222 770.553L264.222 762.331C264.222 762.048 263.938 762.331 264.222 762.331L303.628 762.331C303.784 762.331 303.912 762.204 303.912 762.048L303.912 714.136C303.912 713.853 303.628 714.136 303.912 714.136L312.133 714.136C312.289 714.136 312.417 714.009 312.417 713.853L312.417 696.843C312.417 696.687 312.289 696.56 312.133 696.56L303.912 696.56C303.628 696.56 303.912 696.843 303.912 696.56L303.912 680.116C303.912 679.833 303.628 680.116 303.912 680.116L312.133 680.116C312.289 680.116 312.417 679.989 312.417 679.833L312.417 662.823C312.417 662.667 312.289 662.54 312.133 662.54L303.912 662.54C303.628 662.54 303.912 662.823 303.912 662.54L303.912 646.096C303.912 645.813 303.628 646.096 303.912 646.096L312.133 646.096C312.289 646.096 312.417 645.969 312.417 645.813L312.417 628.803C312.417 628.647 312.289 628.519 312.133 628.519L303.912 628.519C303.628 628.519 303.912 628.803 303.912 628.519L303.912 612.076C303.912 611.793 303.628 612.076 303.912 612.076L312.133 612.076C312.289 612.076 312.417 611.949 312.417 611.793L312.417 594.783C312.417 594.627 312.289 594.499 312.133 594.499L303.912 594.499C303.628 594.499 303.912 594.783 303.912 594.499L303.912 578.056C303.912 577.773 303.628 578.056 303.912 578.056L312.133 578.056C312.289 578.056 312.417 577.929 312.417 577.773L312.417 560.763C312.417 560.607 312.289 560.479 312.133 560.479L303.912 560.479C303.628 560.479 303.912 560.763 303.912 560.479L303.912 544.036C303.912 543.753 303.628 544.036 303.912 544.036L312.133 544.036C312.289 544.036 312.417 543.909 312.417 543.753L312.417 526.743C312.417 526.587 312.289 526.459 312.133 526.459L303.912 526.459C303.628 526.459 303.912 526.743 303.912 526.459L303.912 510.016C303.912 509.733 303.628 510.016 303.912 510.016L312.133 510.016C312.289 510.016 312.417 509.889 312.417 509.733L312.417 492.723C312.417 492.567 312.289 492.439 312.133 492.439L303.912 492.439C303.628 492.439 303.912 492.723 303.912 492.439L303.912 475.996C303.912 475.713 303.628 475.996 303.912 475.996L312.133 475.996C312.289 475.996 312.417 475.869 312.417 475.713L312.417 458.703C312.417 458.547 312.289 458.419 312.133 458.419L303.912 458.419C303.628 458.419 303.912 458.703 303.912 458.419L303.912 410.508C303.912 410.352 303.784 410.224 303.628 410.224L264.222 410.224C263.938 410.224 264.222 410.508 264.222 410.224L264.222 402.003C264.222 401.847 264.094 401.719 263.938 401.719L246.928 401.719C246.773 401.719 246.645 401.847 246.645 402.003L246.645 410.224C246.645 410.508 246.928 410.224 246.645 410.224L230.202 410.224C229.918 410.224 230.202 410.508 230.202 410.224L230.202 402.003C230.202 401.847 230.074 401.719 229.918 401.719L212.908 401.719C212.753 401.719 212.625 401.847 212.625 402.003L212.625 410.224C212.625 410.508 212.908 410.224 212.625 410.224L196.182 410.224C195.898 410.224 196.182 410.508 196.182 410.224L196.182 402.003C196.182 401.847 196.054 401.719 195.898 401.719L178.888 401.719C178.733 401.719 178.605 401.847 178.605 402.003L178.605 410.224C178.605 410.508 178.888 410.224 178.605 410.224L162.162 410.224C161.878 410.224 162.162 410.508 162.162 410.224L162.162 402.003C162.162 401.847 162.034 401.719 161.878 401.719L144.868 401.719C144.713 401.719 144.585 401.847 144.585 402.003L144.585 410.224C144.585 410.508 144.868 410.224 144.585 410.224L128.142 410.224C127.858 410.224 128.142 410.508 128.142 410.224L128.142 402.003C128.142 401.847 128.014 401.719 127.858 401.719L110.848 401.719C110.693 401.719 110.565 401.847 110.565 402.003L110.565 410.224C110.565 410.508 110.848 410.224 110.565 410.224L94.122 410.224C93.8385 410.224 94.122 410.508 94.122 410.224L94.122 402.003C94.122 401.847 93.9944 401.719 93.8385 401.719L76.8285 401.719C76.6726 401.719 76.545 401.847 76.545 402.003L76.545 410.224C76.545 410.508 76.8285 410.224 76.545 410.224L37.1385 410.224C36.9826 410.224 36.855 410.352 36.855 410.508L36.855 458.419C36.855 458.703 37.1385 458.419 36.855 458.419L28.6335 458.419C28.4776 458.419 28.35 458.547 28.35 458.703L28.35 475.713C28.35 475.869 28.4776 475.996 28.6335 475.996L36.855 475.996C37.1385 475.996 36.855 475.713 36.855 475.996L36.855 492.439C36.855 492.723 37.1385 492.439 36.855 492.439L28.6335 492.439C28.4776 492.439 28.35 492.567 28.35 492.723L28.35 509.733C28.35 509.889 28.4776 510.016 28.6335 510.016L36.855 510.016C37.1385 510.016 36.855 509.733 36.855 510.016L36.855 526.459C36.855 526.743 37.1385 526.459 36.855 526.459L28.6335 526.459C28.4776 526.459 28.35 526.587 28.35 526.743L28.35 543.753C28.35 543.909 28.4776 544.036 28.6335 544.036L36.855 544.036C37.1385 544.036 36.855 543.753 36.855 544.036L36.855 560.479C36.855 560.763 37.1385 560.479 36.855 560.479L28.6335 560.479C28.4776 560.479 28.35 560.607 28.35 560.763L28.35 577.773C28.35 577.929 28.4776 578.056 28.6335 578.056L36.855 578.056C37.1385 578.056 36.855 577.773 36.855 578.056L36.855 594.499C36.855 594.783 37.1385 594.499 36.855 594.499L28.6335 594.499C28.4776 594.499 28.35 594.627 28.35 594.783L28.35 611.793C28.35 611.949 28.4776 612.076 28.6335 612.076L36.855 612.076C37.1385 612.076 36.855 611.793 36.855 612.076L36.855 628.519C36.855 628.803 37.1385 628.519 36.855 628.519L28.6335 628.519C28.4776 628.519 28.35 628.647 28.35 628.803L28.35 645.813C28.35 645.969 28.4776 646.096 28.6335 646.096L36.855 646.096C37.1385 646.096 36.855 645.813 36.855 646.096L36.855 662.54C36.855 662.823 37.1385 662.54 36.855 662.54L28.6335 662.54C28.4776 662.54 28.35 662.667 28.35 662.823L28.35 679.833C28.35 679.989 28.4776 680.116 28.6335 680.116L36.855 680.116C37.1385 680.116 36.855 679.833 36.855 680.116L36.855 696.56C36.855 696.843 37.1385 696.56 36.855 696.56L28.6335 696.56C28.4776 696.56 28.35 696.687 28.35 696.843L28.35 713.853C28.35 714.009 28.4776 714.136 28.6335 714.136L36.855 714.136C37.1385 714.136 36.855 713.853 36.855 714.136L36.855 762.048C36.855 762.204 36.9826 762.331 37.1385 762.331" fill="none" opacity="1" stroke="#000000" stroke-linecap="round" stroke-linejoin="round" stroke-width="0.2"/>
<path d="M69.8127 443.549L268.263 443.549L268.263 727.049L69.8127 727.049L69.8127 443.549Z" fill="none" opacity="1" stroke="#000000" stroke-linecap="round" stroke-linejoin="round" stroke-width="0.2"/>
</g>
<g id="p-4" vectornator:layerName="p-4">
<path d="M28.6335 388.962L41.6773 388.962C41.9608 388.962 41.6773 388.679 41.6773 388.962L41.6773 397.184C41.6773 397.339 41.8049 397.467 41.9608 397.467L49.3262 397.467C49.4821 397.467 49.6097 397.339 49.6097 397.184L49.6097 388.962C49.6097 388.679 49.3262 388.962 49.6097 388.962L54.1485 388.962L66.6225 388.962C66.906 388.962 66.6225 388.679 66.6225 388.962L66.6225 397.184C66.6225 397.339 66.7501 397.467 66.906 397.467L295.123 397.467L303.628 397.467C303.784 397.467 303.912 397.339 303.912 397.184L303.912 388.679L303.912 37.1385L303.912 28.6335C303.912 28.4776 303.784 28.35 303.628 28.35L295.123 28.35L66.906 28.35C66.7501 28.35 66.6225 28.4776 66.6225 28.6335L66.6225 36.855C66.6225 37.1385 66.906 36.855 66.6225 36.855L54.1485 36.855L49.6097 36.855C49.3262 36.855 49.6097 37.1385 49.6097 36.855L49.6097 28.6335C49.6097 28.4776 49.4821 28.35 49.3262 28.35L41.9608 28.35C41.8049 28.35 41.6773 28.4776 41.6773 28.6335L41.6773 36.855C41.6773 37.1385 41.9608 36.855 41.6773 36.855L28.6335 36.855C28.4776 36.855 28.35 36.9826 28.35 37.1385L28.35 388.679C28.35 388.834 28.4776 388.962 28.6335 388.962" fill="none" opacity="1" stroke="#000000" stroke-linecap="round" stroke-linejoin="round" stroke-width="0.2"/>
<path d="M67.4646 68.3632L265.915 68.3632L265.915 351.863L67.4646 351.863L67.4646 68.3632Z" fill="none" opacity="1" stroke="#000000" stroke-linecap="round" stroke-linejoin="round" stroke-width="0.2"/>
</g>
<g id="p-5" vectornator:layerName="p-5">
<path d="M325.458 1347.48L372.803 1347.48C372.958 1347.48 373.086 1347.35 373.086 1347.19L373.086 1338.97C373.086 1338.69 372.803 1338.97 373.086 1338.97L391.23 1338.97C391.514 1338.97 391.23 1338.69 391.23 1338.97L391.23 1347.19C391.23 1347.35 391.358 1347.48 391.514 1347.48L406.823 1347.48C406.978 1347.48 407.106 1347.35 407.106 1347.19L407.106 1338.97C407.106 1338.69 406.823 1338.97 407.106 1338.97L425.25 1338.97C425.534 1338.97 425.25 1338.69 425.25 1338.97L425.25 1347.19C425.25 1347.35 425.378 1347.48 425.534 1347.48L440.843 1347.48C440.998 1347.48 441.126 1347.35 441.126 1347.19L441.126 1338.97C441.126 1338.69 440.843 1338.97 441.126 1338.97L459.27 1338.97C459.554 1338.97 459.27 1338.69 459.27 1338.97L459.27 1347.19C459.27 1347.35 459.398 1347.48 459.554 1347.48L474.863 1347.48C475.018 1347.48 475.146 1347.35 475.146 1347.19L475.146 1338.97C475.146 1338.69 474.863 1338.97 475.146 1338.97L493.29 1338.97C493.574 1338.97 493.29 1338.69 493.29 1338.97L493.29 1347.19C493.29 1347.35 493.418 1347.48 493.574 1347.48L508.883 1347.48C509.038 1347.48 509.166 1347.35 509.166 1347.19L509.166 1338.97C509.166 1338.69 508.883 1338.97 509.166 1338.97L527.31 1338.97C527.594 1338.97 527.31 1338.69 527.31 1338.97L527.31 1347.19C527.31 1347.35 527.438 1347.48 527.594 1347.48L542.903 1347.48C543.058 1347.48 543.186 1347.35 543.186 1347.19L543.186 1338.97C543.186 1338.69 542.903 1338.97 543.186 1338.97L561.33 1338.97C561.614 1338.97 561.33 1338.69 561.33 1338.97L561.33 1347.19C561.33 1347.35 561.458 1347.48 561.614 1347.48L576.923 1347.48C577.078 1347.48 577.206 1347.35 577.206 1347.19L577.206 1338.97C577.206 1338.69 576.923 1338.97 577.206 1338.97L595.35 1338.97C595.634 1338.97 595.35 1338.69 595.35 1338.97L595.35 1347.19C595.35 1347.35 595.478 1347.48 595.634 1347.48L610.943 1347.48C611.098 1347.48 611.226 1347.35 611.226 1347.19L611.226 1338.97C611.226 1338.69 610.943 1338.97 611.226 1338.97L629.37 1338.97C629.654 1338.97 629.37 1338.69 629.37 1338.97L629.37 1347.19C629.37 1347.35 629.498 1347.48 629.654 1347.48L676.998 1347.48C677.154 1347.48 677.281 1347.35 677.281 1347.19L677.281 1312.04C677.281 1311.75 676.998 1312.04 677.281 1312.04L685.503 1312.04C685.659 1312.04 685.786 1311.91 685.786 1311.75L685.786 1294.74C685.786 1294.59 685.659 1294.46 685.503 1294.46L677.281 1294.46C676.998 1294.46 677.281 1294.74 677.281 1294.46L677.281 1278.02C677.281 1277.73 676.998 1278.02 677.281 1278.02L685.503 1278.02C685.659 1278.02 685.786 1277.89 685.786 1277.73L685.786 1260.72C685.786 1260.57 685.659 1260.44 685.503 1260.44L677.281 1260.44C676.998 1260.44 677.281 1260.72 677.281 1260.44L677.281 1244C677.281 1243.71 676.998 1244 677.281 1244L685.503 1244C685.659 1244 685.786 1243.87 685.786 1243.71L685.786 1226.7C685.786 1226.55 685.659 1226.42 685.503 1226.42L677.281 1226.42C676.998 1226.42 677.281 1226.7 677.281 1226.42L677.281 1209.98C677.281 1209.69 676.998 1209.98 677.281 1209.98L685.503 1209.98C685.659 1209.98 685.786 1209.85 685.786 1209.69L685.786 1192.68C685.786 1192.53 685.659 1192.4 685.503 1192.4L677.281 1192.4C676.998 1192.4 677.281 1192.68 677.281 1192.4L677.281 1175.96C677.281 1175.67 676.998 1175.96 677.281 1175.96L685.503 1175.96C685.659 1175.96 685.786 1175.83 685.786 1175.67L685.786 1158.66C685.786 1158.51 685.659 1158.38 685.503 1158.38L677.281 1158.38C676.998 1158.38 677.281 1158.66 677.281 1158.38L677.281 1141.94C677.281 1141.65 676.998 1141.94 677.281 1141.94L685.503 1141.94C685.659 1141.94 685.786 1141.81 685.786 1141.65L685.786 1124.64C685.786 1124.49 685.659 1124.36 685.503 1124.36L677.281 1124.36C676.998 1124.36 677.281 1124.64 677.281 1124.36L677.281 1089.21C677.281 1089.05 677.154 1088.92 676.998 1088.92L325.458 1088.92C325.302 1088.92 325.174 1089.05 325.174 1089.21L325.174 1124.36C325.174 1124.64 325.458 1124.36 325.174 1124.36L316.953 1124.36C316.797 1124.36 316.669 1124.49 316.669 1124.64L316.669 1141.65C316.669 1141.81 316.797 1141.94 316.953 1141.94L325.174 1141.94C325.458 1141.94 325.174 1141.65 325.174 1141.94L325.174 1158.38C325.174 1158.66 325.458 1158.38 325.174 1158.38L316.953 1158.38C316.797 1158.38 316.669 1158.51 316.669 1158.66L316.669 1175.67C316.669 1175.83 316.797 1175.96 316.953 1175.96L325.174 1175.96C325.458 1175.96 325.174 1175.67 325.174 1175.96L325.174 1192.4C325.174 1192.68 325.458 1192.4 325.174 1192.4L316.953 1192.4C316.797 1192.4 316.669 1192.53 316.669 1192.68L316.669 1209.69C316.669 1209.85 316.797 1209.98 316.953 1209.98L325.174 1209.98C325.458 1209.98 325.174 1209.69 325.174 1209.98L325.174 1226.42C325.174 1226.7 325.458 1226.42 325.174 1226.42L316.953 1226.42C316.797 1226.42 316.669 1226.55 316.669 1226.7L316.669 1243.71C316.669 1243.87 316.797 1244 316.953 1244L325.174 1244C325.458 1244 325.174 1243.71 325.174 1244L325.174 1260.44C325.174 1260.72 325.458 1260.44 325.174 1260.44L316.953 1260.44C316.797 1260.44 316.669 1260.57 316.669 1260.72L316.669 1277.73C316.669 1277.89 316.797 1278.02 316.953 1278.02L325.174 1278.02C325.458 1278.02 325.174 1277.73 325.174 1278.02L325.174 1294.46C325.174 1294.74 325.458 1294.46 325.174 1294.46L316.953 1294.46C316.797 1294.46 316.669 1294.59 316.669 1294.74L316.669 1311.75C316.669 1311.91 316.797 1312.04 316.953 1312.04L325.174 1312.04C325.458 1312.04 325.174 1311.75 325.174 1312.04L325.174 1347.19C325.174 1347.35 325.302 1347.48 325.458 1347.48" fill="none" opacity="1" stroke="#000000" stroke-linecap="round" stroke-linejoin="round" stroke-width="0.2"/>
<path d="M368.005 1137.91L623.155 1137.91L623.155 1308.01L368.005 1308.01L368.005 1137.91Z" fill="none" opacity="1" stroke="#000000" stroke-linecap="round" stroke-linejoin="round" stroke-width="0.2"/>
</g>
<g id="p-6" vectornator:layerName="p-6">
<path d="M325.458 1084.67L372.803 1084.67C372.958 1084.67 373.086 1084.54 373.086 1084.39L373.086 1076.17C373.086 1075.88 372.803 1076.17 373.086 1076.17L391.23 1076.17C391.514 1076.17 391.23 1075.88 391.23 1076.17L391.23 1084.39C391.23 1084.54 391.358 1084.67 391.514 1084.67L406.823 1084.67C406.978 1084.67 407.106 1084.54 407.106 1084.39L407.106 1076.17C407.106 1075.88 406.823 1076.17 407.106 1076.17L425.25 1076.17C425.534 1076.17 425.25 1075.88 425.25 1076.17L425.25 1084.39C425.25 1084.54 425.378 1084.67 425.534 1084.67L440.843 1084.67C440.998 1084.67 441.126 1084.54 441.126 1084.39L441.126 1076.17C441.126 1075.88 440.843 1076.17 441.126 1076.17L459.27 1076.17C459.554 1076.17 459.27 1075.88 459.27 1076.17L459.27 1084.39C459.27 1084.54 459.398 1084.67 459.554 1084.67L474.863 1084.67C475.018 1084.67 475.146 1084.54 475.146 1084.39L475.146 1076.17C475.146 1075.88 474.863 1076.17 475.146 1076.17L493.29 1076.17C493.574 1076.17 493.29 1075.88 493.29 1076.17L493.29 1084.39C493.29 1084.54 493.418 1084.67 493.574 1084.67L508.883 1084.67C509.038 1084.67 509.166 1084.54 509.166 1084.39L509.166 1076.17C509.166 1075.88 508.883 1076.17 509.166 1076.17L527.31 1076.17C527.594 1076.17 527.31 1075.88 527.31 1076.17L527.31 1084.39C527.31 1084.54 527.438 1084.67 527.594 1084.67L542.903 1084.67C543.058 1084.67 543.186 1084.54 543.186 1084.39L543.186 1076.17C543.186 1075.88 542.903 1076.17 543.186 1076.17L561.33 1076.17C561.614 1076.17 561.33 1075.88 561.33 1076.17L561.33 1084.39C561.33 1084.54 561.458 1084.67 561.614 1084.67L576.923 1084.67C577.078 1084.67 577.206 1084.54 577.206 1084.39L577.206 1076.17C577.206 1075.88 576.923 1076.17 577.206 1076.17L595.35 1076.17C595.634 1076.17 595.35 1075.88 595.35 1076.17L595.35 1084.39C595.35 1084.54 595.478 1084.67 595.634 1084.67L610.943 1084.67C611.098 1084.67 611.226 1084.54 611.226 1084.39L611.226 1076.17C611.226 1075.88 610.943 1076.17 611.226 1076.17L629.37 1076.17C629.654 1076.17 629.37 1075.88 629.37 1076.17L629.37 1084.39C629.37 1084.54 629.498 1084.67 629.654 1084.67L676.998 1084.67C677.154 1084.67 677.281 1084.54 677.281 1084.39L677.281 1049.23C677.281 1048.95 676.998 1049.23 677.281 1049.23L685.503 1049.23C685.659 1049.23 685.786 1049.11 685.786 1048.95L685.786 1031.94C685.786 1031.78 685.659 1031.66 685.503 1031.66L677.281 1031.66C676.998 1031.66 677.281 1031.94 677.281 1031.66L677.281 1015.21C677.281 1014.93 676.998 1015.21 677.281 1015.21L685.503 1015.21C685.659 1015.21 685.786 1015.09 685.786 1014.93L685.786 997.92C685.786 997.764 685.659 997.636 685.503 997.636L677.281 997.636C676.998 997.636 677.281 997.92 677.281 997.636L677.281 981.194C677.281 980.91 676.998 981.194 677.281 981.194L685.503 981.194C685.659 981.194 685.786 981.066 685.786 980.91L685.786 963.9C685.786 963.744 685.659 963.616 685.503 963.616L677.281 963.616C676.998 963.616 677.281 963.9 677.281 963.616L677.281 947.174C677.281 946.89 676.998 947.174 677.281 947.174L685.503 947.174C685.659 947.174 685.786 947.046 685.786 946.89L685.786 929.88C685.786 929.724 685.659 929.596 685.503 929.596L677.281 929.596C676.998 929.596 677.281 929.88 677.281 929.596L677.281 913.154C677.281 912.87 676.998 913.154 677.281 913.154L685.503 913.154C685.659 913.154 685.786 913.026 685.786 912.87L685.786 895.86C685.786 895.704 685.659 895.576 685.503 895.576L677.281 895.576C676.998 895.576 677.281 895.86 677.281 895.576L677.281 879.134C677.281 878.85 676.998 879.134 677.281 879.134L685.503 879.134C685.659 879.134 685.786 879.006 685.786 878.85L685.786 861.84C685.786 861.684 685.659 861.556 685.503 861.556L677.281 861.556C676.998 861.556 677.281 861.84 677.281 861.556L677.281 826.403C677.281 826.247 677.154 826.119 676.998 826.119L325.458 826.119C325.302 826.119 325.174 826.247 325.174 826.403L325.174 861.556C325.174 861.84 325.458 861.556 325.174 861.556L316.953 861.556C316.797 861.556 316.669 861.684 316.669 861.84L316.669 878.85C316.669 879.006 316.797 879.134 316.953 879.134L325.174 879.134C325.458 879.134 325.174 878.85 325.174 879.134L325.174 895.576C325.174 895.86 325.458 895.576 325.174 895.576L316.953 895.576C316.797 895.576 316.669 895.704 316.669 895.86L316.669 912.87C316.669 913.026 316.797 913.154 316.953 913.154L325.174 913.154C325.458 913.154 325.174 912.87 325.174 913.154L325.174 929.596C325.174 929.88 325.458 929.596 325.174 929.596L316.953 929.596C316.797 929.596 316.669 929.724 316.669 929.88L316.669 946.89C316.669 947.046 316.797 947.174 316.953 947.174L325.174 947.174C325.458 947.174 325.174 946.89 325.174 947.174L325.174 963.616C325.174 963.9 325.458 963.616 325.174 963.616L316.953 963.616C316.797 963.616 316.669 963.744 316.669 963.9L316.669 980.91C316.669 981.066 316.797 981.194 316.953 981.194L325.174 981.194C325.458 981.194 325.174 980.91 325.174 981.194L325.174 997.636C325.174 997.92 325.458 997.636 325.174 997.636L316.953 997.636C316.797 997.636 316.669 997.764 316.669 997.92L316.669 1014.93C316.669 1015.09 316.797 1015.21 316.953 1015.21L325.174 1015.21C325.458 1015.21 325.174 1014.93 325.174 1015.21L325.174 1031.66C325.174 1031.94 325.458 1031.66 325.174 1031.66L316.953 1031.66C316.797 1031.66 316.669 1031.78 316.669 1031.94L316.669 1048.95C316.669 1049.11 316.797 1049.23 316.953 1049.23L325.174 1049.23C325.458 1049.23 325.174 1048.95 325.174 1049.23L325.174 1084.39C325.174 1084.54 325.302 1084.67 325.458 1084.67" fill="none" opacity="1" stroke="#000000" stroke-linecap="round" stroke-linejoin="round" stroke-width="0.2"/>
<path d="M373.635 870.317L628.785 870.317L628.785 1040.42L373.635 1040.42L373.635 870.317Z" fill="none" opacity="1" stroke="#000000" stroke-linecap="round" stroke-linejoin="round" stroke-width="0.2"/>
</g>
</svg>
