<?xml version="1.0" encoding="UTF-8" standalone="no"?> <!-- Created with Vectornator for iOS (http://vectornator.io/) --><!DOCTYPE svg PUBLIC "-//W3C//DTD SVG 1.1//EN" "http://www.w3.org/Graphics/SVG/1.1/DTD/svg11.dtd">
<svg height="100%" style="fill-rule:nonzero;clip-rule:evenodd;stroke-linecap:round;stroke-linejoin:round;" version="1.1" viewBox="0 0 714.136 1408.99" width="100%" xml:space="preserve" xmlns="http://www.w3.org/2000/svg" xmlns:vectornator="http://vectornator.io" xmlns:xlink="http://www.w3.org/1999/xlink">
<metadata>
<vectornator:setting key="IsTimeLapseWatermarkDisabled" value="false"/>
<vectornator:setting key="UndoHistoryDisabled" value="true"/>
<vectornator:setting key="VNDimensionsVisible" value="true"/>
<vectornator:setting key="VNSnapToGuides" value="true"/>
<vectornator:setting key="WDCMYKEnabledKey" value="false"/>
<vectornator:setting key="WDDisplayWhiteBackground" value="false"/>
<vectornator:setting key="WDDynamicGuides" value="false"/>
<vectornator:setting key="WDGuidesVisible" value="true"/>
<vectornator:setting key="WDIsolateActiveLayer" value="false"/>
<vectornator:setting key="WDOutlineMode" value="false"/>
<vectornator:setting key="WDRulersVisible" value="true"/>
<vectornator:setting key="WDSnapToEdges" value="false"/>
<vectornator:setting key="WDSnapToGrid" value="false"/>
<vectornator:setting key="WDSnapToPoints" value="false"/>
<vectornator:setting key="WDUnits" value="Millimeters"/>
</metadata>
<defs/>
<g id="p-0" vectornator:layerName="p-0">
<path d="M28.6335 1380.65L312.133 1380.65L312.133 1352.3L28.6335 1352.3L28.6335 1380.65Z" fill="none" opacity="1" stroke="#000000" stroke-linecap="round" stroke-linejoin="round" stroke-width="0.2"/>
<g opacity="1">
<path d="M-11.0723-3.96094L-11.0723-4.5C-10.5645-4.54948-10.2103-4.63216-10.0098-4.74805C-9.80924-4.86393-9.65951-5.13802-9.56055-5.57031L-9.00586-5.57031L-9.00586 0L-9.75586 0L-9.75586-3.96094L-11.0723-3.96094Z" fill="#000000" opacity="1"/>
<path d="M-5.22461-5.59375C-4.50065-5.59375-3.97721-5.29557-3.6543-4.69922C-3.4043-4.23828-3.2793-3.60677-3.2793-2.80469C-3.2793-2.04427-3.39258-1.41536-3.61914-0.917969C-3.94727-0.204427-4.48372 0.152344-5.22852 0.152344C-5.90039 0.152344-6.40039-0.139323-6.72852-0.722656C-7.00195-1.20964-7.13867-1.86328-7.13867-2.68359C-7.13867-3.31901-7.05664-3.86458-6.89258-4.32031C-6.58529-5.16927-6.0293-5.59375-5.22461-5.59375ZM-5.23242-0.488281C-4.86784-0.488281-4.57747-0.64974-4.36133-0.972656C-4.14518-1.29557-4.03711-1.89714-4.03711-2.77734C-4.03711-3.41276-4.11523-3.93555-4.27148-4.3457C-4.42773-4.75586-4.73112-4.96094-5.18164-4.96094C-5.5957-4.96094-5.89844-4.76628-6.08984-4.37695C-6.28125-3.98763-6.37695-3.41406-6.37695-2.65625C-6.37695-2.08594-6.31576-1.6276-6.19336-1.28125C-6.00586-0.752604-5.68555-0.488281-5.23242-0.488281Z" fill="#000000" opacity="1"/>
<path d="M-0.775391-5.59375C-0.0514323-5.59375 0.472005-5.29557 0.794922-4.69922C1.04492-4.23828 1.16992-3.60677 1.16992-2.80469C1.16992-2.04427 1.05664-1.41536 0.830078-0.917969C0.501953-0.204427-0.0345052 0.152344-0.779297 0.152344C-1.45117 0.152344-1.95117-0.139323-2.2793-0.722656C-2.55273-1.20964-2.68945-1.86328-2.68945-2.68359C-2.68945-3.31901-2.60742-3.86458-2.44336-4.32031C-2.13607-5.16927-1.58008-5.59375-0.775391-5.59375ZM-0.783203-0.488281C-0.41862-0.488281-0.128255-0.64974 0.0878906-0.972656C0.304036-1.29557 0.412109-1.89714 0.412109-2.77734C0.412109-3.41276 0.333984-3.93555 0.177734-4.3457C0.0214844-4.75586-0.281901-4.96094-0.732422-4.96094C-1.14648-4.96094-1.44922-4.76628-1.64062-4.37695C-1.83203-3.98763-1.92773-3.41406-1.92773-2.65625C-1.92773-2.08594-1.86654-1.6276-1.74414-1.28125C-1.55664-0.752604-1.23633-0.488281-0.783203-0.488281Z" fill="#000000" opacity="1"/>
<path d="M2.02539-4.18359L2.7207-4.18359L2.7207-3.58984C2.88737-3.79557 3.03841-3.94531 3.17383-4.03906C3.4056-4.19792 3.66862-4.27734 3.96289-4.27734C4.29622-4.27734 4.56445-4.19531 4.76758-4.03125C4.88216-3.9375 4.98633-3.79948 5.08008-3.61719C5.23633-3.84115 5.41992-4.00716 5.63086-4.11523C5.8418-4.22331 6.07878-4.27734 6.3418-4.27734C6.9043-4.27734 7.28711-4.07422 7.49023-3.66797C7.59961-3.44922 7.6543-3.15495 7.6543-2.78516L7.6543 0L6.92383 0L6.92383-2.90625C6.92383-3.1849 6.85417-3.3763 6.71484-3.48047C6.57552-3.58464 6.4056-3.63672 6.20508-3.63672C5.92904-3.63672 5.69141-3.54427 5.49219-3.35938C5.29297-3.17448 5.19336-2.86589 5.19336-2.43359L5.19336 0L4.47852 0L4.47852-2.73047C4.47852-3.01432 4.44466-3.22135 4.37695-3.35156C4.27018-3.54688 4.07096-3.64453 3.7793-3.64453C3.51367-3.64453 3.27214-3.54167 3.05469-3.33594C2.83724-3.13021 2.72852-2.75781 2.72852-2.21875L2.72852 0L2.02539 0L2.02539-4.18359Z" fill="#000000" opacity="1"/>
<path d="M8.68945-4.18359L9.38477-4.18359L9.38477-3.58984C9.55143-3.79557 9.70247-3.94531 9.83789-4.03906C10.0697-4.19792 10.3327-4.27734 10.627-4.27734C10.9603-4.27734 11.2285-4.19531 11.4316-4.03125C11.5462-3.9375 11.6504-3.79948 11.7441-3.61719C11.9004-3.84115 12.084-4.00716 12.2949-4.11523C12.5059-4.22331 12.7428-4.27734 13.0059-4.27734C13.5684-4.27734 13.9512-4.07422 14.1543-3.66797C14.2637-3.44922 14.3184-3.15495 14.3184-2.78516L14.3184 0L13.5879 0L13.5879-2.90625C13.5879-3.1849 13.5182-3.3763 13.3789-3.48047C13.2396-3.58464 13.0697-3.63672 12.8691-3.63672C12.5931-3.63672 12.3555-3.54427 12.1562-3.35938C11.957-3.17448 11.8574-2.86589 11.8574-2.43359L11.8574 0L11.1426 0L11.1426-2.73047C11.1426-3.01432 11.1087-3.22135 11.041-3.35156C10.9342-3.54688 10.735-3.64453 10.4434-3.64453C10.1777-3.64453 9.9362-3.54167 9.71875-3.33594C9.5013-3.13021 9.39258-2.75781 9.39258-2.21875L9.39258 0L8.68945 0L8.68945-4.18359Z" fill="#000000" opacity="1"/>
</g>
</g>
<g id="p-1" vectornator:layerName="p-1">
<path d="M45.6435 1347.48L76.8285 1347.48C76.9844 1347.48 77.112 1347.35 77.112 1347.19L77.112 1338.97C77.112 1338.69 76.8285 1338.97 77.112 1338.97L93.555 1338.97C93.8385 1338.97 93.555 1338.69 93.555 1338.97L93.555 1347.19C93.555 1347.35 93.6826 1347.48 93.8385 1347.48L110.848 1347.48C111.004 1347.48 111.132 1347.35 111.132 1347.19L111.132 1338.97C111.132 1338.69 110.848 1338.97 111.132 1338.97L127.575 1338.97C127.858 1338.97 127.575 1338.69 127.575 1338.97L127.575 1347.19C127.575 1347.35 127.703 1347.48 127.858 1347.48L144.868 1347.48C145.024 1347.48 145.152 1347.35 145.152 1347.19L145.152 1338.97C145.152 1338.69 144.868 1338.97 145.152 1338.97L161.595 1338.97C161.878 1338.97 161.595 1338.69 161.595 1338.97L161.595 1347.19C161.595 1347.35 161.723 1347.48 161.878 1347.48L178.888 1347.48C179.044 1347.48 179.172 1347.35 179.172 1347.19L179.172 1338.97C179.172 1338.69 178.888 1338.97 179.172 1338.97L195.615 1338.97C195.898 1338.97 195.615 1338.69 195.615 1338.97L195.615 1347.19C195.615 1347.35 195.743 1347.48 195.898 1347.48L212.908 1347.48C213.064 1347.48 213.192 1347.35 213.192 1347.19L213.192 1338.97C213.192 1338.69 212.908 1338.97 213.192 1338.97L229.635 1338.97C229.918 1338.97 229.635 1338.69 229.635 1338.97L229.635 1347.19C229.635 1347.35 229.763 1347.48 229.918 1347.48L246.928 1347.48C247.084 1347.48 247.212 1347.35 247.212 1347.19L247.212 1338.97C247.212 1338.69 246.928 1338.97 247.212 1338.97L263.655 1338.97C263.938 1338.97 263.655 1338.69 263.655 1338.97L263.655 1347.19C263.655 1347.35 263.783 1347.48 263.938 1347.48L295.123 1347.48L312.133 1347.48C312.289 1347.48 312.417 1347.35 312.417 1347.19L312.417 1089.21C312.417 1089.05 312.289 1088.92 312.133 1088.92L295.407 1088.92C295.123 1088.92 295.407 1089.21 295.407 1088.92L295.407 1084.95C295.407 1081.92 294.608 1078.94 293.091 1076.31C291.571 1073.68 289.388 1071.5 286.76 1069.98C284.132 1068.46 281.15 1067.66 278.113 1067.66C275.077 1067.66 272.095 1068.46 269.467 1069.98C266.839 1071.5 264.656 1073.68 263.136 1076.31C261.619 1078.94 260.82 1081.92 260.82 1084.95C260.82 1085.65 260.636 1086.34 260.287 1086.94C259.941 1087.54 259.439 1088.04 258.836 1088.39C258.232 1088.74 257.548 1088.92 256.851 1088.92L45.6435 1088.92L28.6335 1088.92C28.4776 1088.92 28.35 1089.05 28.35 1089.21L28.35 1347.19C28.35 1347.35 28.4776 1347.48 28.6335 1347.48L45.6435 1347.48" fill="none" opacity="1" stroke="#000000" stroke-linecap="round" stroke-linejoin="round" stroke-width="0.2"/>
<path d="M303.345 1320.26L303.345 1328.48C303.345 1328.76 303.628 1328.48 303.345 1328.48L295.407 1328.48C295.123 1328.48 295.407 1328.76 295.407 1328.48L295.407 1312.04C295.407 1311.75 295.123 1312.04 295.407 1312.04L303.345 1312.04C303.628 1312.04 303.345 1311.75 303.345 1312.04L303.345 1320.26Z" fill="none" opacity="1" stroke="#0000ff" stroke-linecap="round" stroke-linejoin="round" stroke-width="0.2"/>
<path d="M303.345 1286.24L303.345 1294.46C303.345 1294.74 303.628 1294.46 303.345 1294.46L295.407 1294.46C295.123 1294.46 295.407 1294.74 295.407 1294.46L295.407 1278.02C295.407 1277.73 295.123 1278.02 295.407 1278.02L303.345 1278.02C303.628 1278.02 303.345 1277.73 303.345 1278.02L303.345 1286.24Z" fill="none" opacity="1" stroke="#0000ff" stroke-linecap="round" stroke-linejoin="round" stroke-width="0.2"/>
<path d="M303.345 1252.22L303.345 1260.44C303.345 1260.72 303.628 1260.44 303.345 1260.44L295.407 1260.44C295.123 1260.44 295.407 1260.72 295.407 1260.44L295.407 1244C295.407 1243.71 295.123 1244 295.407 1244L303.345 1244C303.628 1244 303.345 1243.71 303.345 1244L303.345 1252.22Z" fill="none" opacity="1" stroke="#0000ff" stroke-linecap="round" stroke-linejoin="round" stroke-width="0.2"/>
<path d="M303.345 1218.2L303.345 1226.42C303.345 1226.7 303.628 1226.42 303.345 1226.42L295.407 1226.42C295.123 1226.42 295.407 1226.7 295.407 1226.42L295.407 1209.98C295.407 1209.69 295.123 1209.98 295.407 1209.98L303.345 1209.98C303.628 1209.98 303.345 1209.69 303.345 1209.98L303.345 1218.2Z" fill="none" opacity="1" stroke="#0000ff" stroke-linecap="round" stroke-linejoin="round" stroke-width="0.2"/>
<path d="M303.345 1184.18L303.345 1192.4C303.345 1192.68 303.628 1192.4 303.345 1192.4L295.407 1192.4C295.123 1192.4 295.407 1192.68 295.407 1192.4L295.407 1175.96C295.407 1175.67 295.123 1175.96 295.407 1175.96L303.345 1175.96C303.628 1175.96 303.345 1175.67 303.345 1175.96L303.345 1184.18Z" fill="none" opacity="1" stroke="#0000ff" stroke-linecap="round" stroke-linejoin="round" stroke-width="0.2"/>
<path d="M303.345 1150.16L303.345 1158.38C303.345 1158.66 303.628 1158.38 303.345 1158.38L295.407 1158.38C295.123 1158.38 295.407 1158.66 295.407 1158.38L295.407 1141.94C295.407 1141.65 295.123 1141.94 295.407 1141.94L303.345 1141.94C303.628 1141.94 303.345 1141.65 303.345 1141.94L303.345 1150.16Z" fill="none" opacity="1" stroke="#0000ff" stroke-linecap="round" stroke-linejoin="round" stroke-width="0.2"/>
<path d="M303.345 1116.14L303.345 1124.36C303.345 1124.64 303.628 1124.36 303.345 1124.36L295.407 1124.36C295.123 1124.36 295.407 1124.64 295.407 1124.36L295.407 1107.92C295.407 1107.63 295.123 1107.92 295.407 1107.92L303.345 1107.92C303.628 1107.92 303.345 1107.63 303.345 1107.92L303.345 1116.14Z" fill="none" opacity="1" stroke="#0000ff" stroke-linecap="round" stroke-linejoin="round" stroke-width="0.2"/>
<path d="M269.892 1084.67C269.892 1083.09 270.346 1081.55 271.196 1080.23C272.049 1078.9 273.266 1077.85 274.697 1077.19C276.132 1076.54 277.722 1076.31 279.284 1076.53C280.844 1076.76 282.306 1077.42 283.497 1078.46C284.688 1079.49 285.558 1080.84 286.003 1082.35C286.446 1083.87 286.446 1085.48 286.003 1086.99C285.558 1088.5 284.688 1089.85 283.497 1090.89C282.306 1091.92 280.844 1092.58 279.284 1092.81C277.722 1093.03 276.132 1092.8 274.697 1092.15C273.266 1091.49 272.049 1090.44 271.196 1089.12C270.346 1087.79 269.892 1086.25 269.892 1084.67Z" fill="none" opacity="1" stroke="#0000ff" stroke-linecap="round" stroke-linejoin="round" stroke-width="0.2"/>
<path d="M278.113 1080.7L281.513 1080.7C281.796 1080.7 281.513 1080.42 281.513 1080.7L281.513 1088.64C281.513 1088.92 281.796 1088.64 281.513 1088.64L274.714 1088.64C274.431 1088.64 274.714 1088.92 274.714 1088.64L274.714 1080.7C274.714 1080.42 274.431 1080.7 274.714 1080.7L278.113 1080.7Z" fill="none" opacity="1" stroke="#0000ff" stroke-linecap="round" stroke-linejoin="round" stroke-width="0.2"/>
<path d="M37.422 1116.14L37.422 1107.92C37.422 1107.63 37.1385 1107.92 37.422 1107.92L45.36 1107.92C45.6435 1107.92 45.36 1107.63 45.36 1107.92L45.36 1124.36C45.36 1124.64 45.6435 1124.36 45.36 1124.36L37.422 1124.36C37.1385 1124.36 37.422 1124.64 37.422 1124.36L37.422 1116.14Z" fill="none" opacity="1" stroke="#0000ff" stroke-linecap="round" stroke-linejoin="round" stroke-width="0.2"/>
<path d="M37.422 1150.16L37.422 1141.94C37.422 1141.65 37.1385 1141.94 37.422 1141.94L45.36 1141.94C45.6435 1141.94 45.36 1141.65 45.36 1141.94L45.36 1158.38C45.36 1158.66 45.6435 1158.38 45.36 1158.38L37.422 1158.38C37.1385 1158.38 37.422 1158.66 37.422 1158.38L37.422 1150.16Z" fill="none" opacity="1" stroke="#0000ff" stroke-linecap="round" stroke-linejoin="round" stroke-width="0.2"/>
<path d="M37.422 1184.18L37.422 1175.96C37.422 1175.67 37.1385 1175.96 37.422 1175.96L45.36 1175.96C45.6435 1175.96 45.36 1175.67 45.36 1175.96L45.36 1192.4C45.36 1192.68 45.6435 1192.4 45.36 1192.4L37.422 1192.4C37.1385 1192.4 37.422 1192.68 37.422 1192.4L37.422 1184.18Z" fill="none" opacity="1" stroke="#0000ff" stroke-linecap="round" stroke-linejoin="round" stroke-width="0.2"/>
<path d="M37.422 1218.2L37.422 1209.98C37.422 1209.69 37.1385 1209.98 37.422 1209.98L45.36 1209.98C45.6435 1209.98 45.36 1209.69 45.36 1209.98L45.36 1226.42C45.36 1226.7 45.6435 1226.42 45.36 1226.42L37.422 1226.42C37.1385 1226.42 37.422 1226.7 37.422 1226.42L37.422 1218.2Z" fill="none" opacity="1" stroke="#0000ff" stroke-linecap="round" stroke-linejoin="round" stroke-width="0.2"/>
<path d="M37.422 1252.22L37.422 1244C37.422 1243.71 37.1385 1244 37.422 1244L45.36 1244C45.6435 1244 45.36 1243.71 45.36 1244L45.36 1260.44C45.36 1260.72 45.6435 1260.44 45.36 1260.44L37.422 1260.44C37.1385 1260.44 37.422 1260.72 37.422 1260.44L37.422 1252.22Z" fill="none" opacity="1" stroke="#0000ff" stroke-linecap="round" stroke-linejoin="round" stroke-width="0.2"/>
<path d="M37.422 1286.24L37.422 1278.02C37.422 1277.73 37.1385 1278.02 37.422 1278.02L45.36 1278.02C45.6435 1278.02 45.36 1277.73 45.36 1278.02L45.36 1294.46C45.36 1294.74 45.6435 1294.46 45.36 1294.46L37.422 1294.46C37.1385 1294.46 37.422 1294.74 37.422 1294.46L37.422 1286.24Z" fill="none" opacity="1" stroke="#0000ff" stroke-linecap="round" stroke-linejoin="round" stroke-width="0.2"/>
<path d="M37.422 1320.26L37.422 1312.04C37.422 1311.75 37.1385 1312.04 37.422 1312.04L45.36 1312.04C45.6435 1312.04 45.36 1311.75 45.36 1312.04L45.36 1328.48C45.36 1328.76 45.6435 1328.48 45.36 1328.48L37.422 1328.48C37.1385 1328.48 37.422 1328.76 37.422 1328.48L37.422 1320.26Z" fill="none" opacity="1" stroke="#0000ff" stroke-linecap="round" stroke-linejoin="round" stroke-width="0.2"/>
</g>
<g id="p-2" vectornator:layerName="p-2">
<path d="M45.6435 1059.16L76.8285 1059.16C76.9844 1059.16 77.112 1059.03 77.112 1058.87L77.112 1050.65C77.112 1050.37 76.8285 1050.65 77.112 1050.65L93.555 1050.65C93.8385 1050.65 93.555 1050.37 93.555 1050.65L93.555 1058.87C93.555 1059.03 93.6826 1059.16 93.8385 1059.16L110.848 1059.16C111.004 1059.16 111.132 1059.03 111.132 1058.87L111.132 1050.65C111.132 1050.37 110.848 1050.65 111.132 1050.65L127.575 1050.65C127.858 1050.65 127.575 1050.37 127.575 1050.65L127.575 1058.87C127.575 1059.03 127.703 1059.16 127.858 1059.16L144.868 1059.16C145.024 1059.16 145.152 1059.03 145.152 1058.87L145.152 1050.65C145.152 1050.37 144.868 1050.65 145.152 1050.65L161.595 1050.65C161.878 1050.65 161.595 1050.37 161.595 1050.65L161.595 1058.87C161.595 1059.03 161.723 1059.16 161.878 1059.16L178.888 1059.16C179.044 1059.16 179.172 1059.03 179.172 1058.87L179.172 1050.65C179.172 1050.37 178.888 1050.65 179.172 1050.65L195.615 1050.65C195.898 1050.65 195.615 1050.37 195.615 1050.65L195.615 1058.87C195.615 1059.03 195.743 1059.16 195.898 1059.16L212.908 1059.16C213.064 1059.16 213.192 1059.03 213.192 1058.87L213.192 1050.65C213.192 1050.37 212.908 1050.65 213.192 1050.65L229.635 1050.65C229.918 1050.65 229.635 1050.37 229.635 1050.65L229.635 1058.87C229.635 1059.03 229.763 1059.16 229.918 1059.16L246.928 1059.16C247.084 1059.16 247.212 1059.03 247.212 1058.87L247.212 1050.65C247.212 1050.37 246.928 1050.65 247.212 1050.65L263.655 1050.65C263.938 1050.65 263.655 1050.37 263.655 1050.65L263.655 1058.87C263.655 1059.03 263.783 1059.16 263.938 1059.16L295.123 1059.16L312.133 1059.16C312.289 1059.16 312.417 1059.03 312.417 1058.87L312.417 800.888C312.417 800.732 312.289 800.604 312.133 800.604L295.123 800.604L83.916 800.604C83.2186 800.604 82.5354 800.42 81.9315 800.071C81.3276 799.725 80.8259 799.223 80.48 798.62C80.1313 798.016 79.947 797.332 79.947 796.635C79.947 793.599 79.1475 790.616 77.6308 787.988C76.1112 785.36 73.9283 783.177 71.3002 781.658C68.6722 780.141 65.6898 779.341 62.6535 779.341C59.6172 779.341 56.6348 780.141 54.0067 781.658C51.3787 783.177 49.1958 785.36 47.6762 787.988C46.1595 790.616 45.36 793.599 45.36 796.635L45.36 800.604C45.36 800.888 45.6435 800.604 45.36 800.604L28.6335 800.604C28.4776 800.604 28.35 800.732 28.35 800.888L28.35 1058.87C28.35 1059.03 28.4776 1059.16 28.6335 1059.16L45.6435 1059.16" fill="none" opacity="1" stroke="#000000" stroke-linecap="round" stroke-linejoin="round" stroke-width="0.2"/>
<path d="M303.345 1031.94L303.345 1040.16C303.345 1040.45 303.628 1040.16 303.345 1040.16L295.407 1040.16C295.123 1040.16 295.407 1040.45 295.407 1040.16L295.407 1023.72C295.407 1023.44 295.123 1023.72 295.407 1023.72L303.345 1023.72C303.628 1023.72 303.345 1023.44 303.345 1023.72L303.345 1031.94Z" fill="none" opacity="1" stroke="#0000ff" stroke-linecap="round" stroke-linejoin="round" stroke-width="0.2"/>
<path d="M303.345 997.92L303.345 1006.14C303.345 1006.43 303.628 1006.14 303.345 1006.14L295.407 1006.14C295.123 1006.14 295.407 1006.43 295.407 1006.14L295.407 989.699C295.407 989.415 295.123 989.699 295.407 989.699L303.345 989.699C303.628 989.699 303.345 989.415 303.345 989.699L303.345 997.92Z" fill="none" opacity="1" stroke="#0000ff" stroke-linecap="round" stroke-linejoin="round" stroke-width="0.2"/>
<path d="M303.345 963.9L303.345 972.121C303.345 972.405 303.628 972.121 303.345 972.121L295.407 972.121C295.123 972.121 295.407 972.405 295.407 972.121L295.407 955.679C295.407 955.395 295.123 955.679 295.407 955.679L303.345 955.679C303.628 955.679 303.345 955.395 303.345 955.679L303.345 963.9Z" fill="none" opacity="1" stroke="#0000ff" stroke-linecap="round" stroke-linejoin="round" stroke-width="0.2"/>
<path d="M303.345 929.88L303.345 938.101C303.345 938.385 303.628 938.101 303.345 938.101L295.407 938.101C295.123 938.101 295.407 938.385 295.407 938.101L295.407 921.659C295.407 921.375 295.123 921.659 295.407 921.659L303.345 921.659C303.628 921.659 303.345 921.375 303.345 921.659L303.345 929.88Z" fill="none" opacity="1" stroke="#0000ff" stroke-linecap="round" stroke-linejoin="round" stroke-width="0.2"/>
<path d="M303.345 895.86L303.345 904.081C303.345 904.365 303.628 904.081 303.345 904.081L295.407 904.081C295.123 904.081 295.407 904.365 295.407 904.081L295.407 887.639C295.407 887.355 295.123 887.639 295.407 887.639L303.345 887.639C303.628 887.639 303.345 887.355 303.345 887.639L303.345 895.86Z" fill="none" opacity="1" stroke="#0000ff" stroke-linecap="round" stroke-linejoin="round" stroke-width="0.2"/>
<path d="M303.345 861.84L303.345 870.061C303.345 870.345 303.628 870.061 303.345 870.061L295.407 870.061C295.123 870.061 295.407 870.345 295.407 870.061L295.407 853.619C295.407 853.335 295.123 853.619 295.407 853.619L303.345 853.619C303.628 853.619 303.345 853.335 303.345 853.619L303.345 861.84Z" fill="none" opacity="1" stroke="#0000ff" stroke-linecap="round" stroke-linejoin="round" stroke-width="0.2"/>
<path d="M303.345 827.82L303.345 836.041C303.345 836.325 303.628 836.041 303.345 836.041L295.407 836.041C295.123 836.041 295.407 836.325 295.407 836.041L295.407 819.599C295.407 819.315 295.123 819.599 295.407 819.599L303.345 819.599C303.628 819.599 303.345 819.315 303.345 819.599L303.345 827.82Z" fill="none" opacity="1" stroke="#0000ff" stroke-linecap="round" stroke-linejoin="round" stroke-width="0.2"/>
<path d="M54.432 796.351C54.432 794.775 54.8856 793.233 55.7361 791.906C56.5894 790.579 57.8056 789.528 59.2373 788.873C60.6718 788.218 62.2623 787.988 63.8244 788.215C65.3836 788.439 66.8465 789.105 68.0372 790.137C69.2279 791.169 70.0982 792.524 70.5433 794.035C70.9856 795.546 70.9856 797.157 70.5433 798.668C70.0982 800.179 69.2279 801.534 68.0372 802.566C66.8465 803.598 65.3836 804.264 63.8244 804.488C62.2623 804.715 60.6718 804.485 59.2373 803.83C57.8056 803.175 56.5894 802.124 55.7361 800.797C54.8856 799.47 54.432 797.928 54.432 796.351Z" fill="none" opacity="1" stroke="#0000ff" stroke-linecap="round" stroke-linejoin="round" stroke-width="0.2"/>
<path d="M62.6535 792.383L66.0527 792.383C66.3362 792.383 66.0527 792.099 66.0527 792.383L66.0527 800.32C66.0527 800.604 66.3362 800.32 66.0527 800.32L59.2543 800.32C58.9708 800.32 59.2543 800.604 59.2543 800.32L59.2543 792.383C59.2543 792.099 58.9708 792.383 59.2543 792.383L62.6535 792.383Z" fill="none" opacity="1" stroke="#0000ff" stroke-linecap="round" stroke-linejoin="round" stroke-width="0.2"/>
<path d="M37.422 827.82L37.422 819.599C37.422 819.315 37.1385 819.599 37.422 819.599L45.36 819.599C45.6435 819.599 45.36 819.315 45.36 819.599L45.36 836.041C45.36 836.325 45.6435 836.041 45.36 836.041L37.422 836.041C37.1385 836.041 37.422 836.325 37.422 836.041L37.422 827.82Z" fill="none" opacity="1" stroke="#0000ff" stroke-linecap="round" stroke-linejoin="round" stroke-width="0.2"/>
<path d="M37.422 861.84L37.422 853.619C37.422 853.335 37.1385 853.619 37.422 853.619L45.36 853.619C45.6435 853.619 45.36 853.335 45.36 853.619L45.36 870.061C45.36 870.345 45.6435 870.061 45.36 870.061L37.422 870.061C37.1385 870.061 37.422 870.345 37.422 870.061L37.422 861.84Z" fill="none" opacity="1" stroke="#0000ff" stroke-linecap="round" stroke-linejoin="round" stroke-width="0.2"/>
<path d="M37.422 895.86L37.422 887.639C37.422 887.355 37.1385 887.639 37.422 887.639L45.36 887.639C45.6435 887.639 45.36 887.355 45.36 887.639L45.36 904.081C45.36 904.365 45.6435 904.081 45.36 904.081L37.422 904.081C37.1385 904.081 37.422 904.365 37.422 904.081L37.422 895.86Z" fill="none" opacity="1" stroke="#0000ff" stroke-linecap="round" stroke-linejoin="round" stroke-width="0.2"/>
<path d="M37.422 929.88L37.422 921.659C37.422 921.375 37.1385 921.659 37.422 921.659L45.36 921.659C45.6435 921.659 45.36 921.375 45.36 921.659L45.36 938.101C45.36 938.385 45.6435 938.101 45.36 938.101L37.422 938.101C37.1385 938.101 37.422 938.385 37.422 938.101L37.422 929.88Z" fill="none" opacity="1" stroke="#0000ff" stroke-linecap="round" stroke-linejoin="round" stroke-width="0.2"/>
<path d="M37.422 963.9L37.422 955.679C37.422 955.395 37.1385 955.679 37.422 955.679L45.36 955.679C45.6435 955.679 45.36 955.395 45.36 955.679L45.36 972.121C45.36 972.405 45.6435 972.121 45.36 972.121L37.422 972.121C37.1385 972.121 37.422 972.405 37.422 972.121L37.422 963.9Z" fill="none" opacity="1" stroke="#0000ff" stroke-linecap="round" stroke-linejoin="round" stroke-width="0.2"/>
<path d="M37.422 997.92L37.422 989.699C37.422 989.415 37.1385 989.699 37.422 989.699L45.36 989.699C45.6435 989.699 45.36 989.415 45.36 989.699L45.36 1006.14C45.36 1006.43 45.6435 1006.14 45.36 1006.14L37.422 1006.14C37.1385 1006.14 37.422 1006.43 37.422 1006.14L37.422 997.92Z" fill="none" opacity="1" stroke="#0000ff" stroke-linecap="round" stroke-linejoin="round" stroke-width="0.2"/>
<path d="M37.422 1031.94L37.422 1023.72C37.422 1023.44 37.1385 1023.72 37.422 1023.72L45.36 1023.72C45.6435 1023.72 45.36 1023.44 45.36 1023.72L45.36 1040.16C45.36 1040.45 45.6435 1040.16 45.36 1040.16L37.422 1040.16C37.1385 1040.16 37.422 1040.45 37.422 1040.16L37.422 1031.94Z" fill="none" opacity="1" stroke="#0000ff" stroke-linecap="round" stroke-linejoin="round" stroke-width="0.2"/>
</g>
<g id="p-3" vectornator:layerName="p-3">
<path d="M37.1385 762.331L68.04 762.331C68.3235 762.331 68.04 762.048 68.04 762.331L68.04 770.553C68.04 770.709 68.1676 770.836 68.3235 770.836L85.3335 770.836C85.4894 770.836 85.617 770.709 85.617 770.553L85.617 762.331C85.617 762.048 85.3335 762.331 85.617 762.331L102.06 762.331C102.343 762.331 102.06 762.048 102.06 762.331L102.06 770.553C102.06 770.709 102.188 770.836 102.343 770.836L119.353 770.836C119.509 770.836 119.637 770.709 119.637 770.553L119.637 762.331C119.637 762.048 119.353 762.331 119.637 762.331L136.08 762.331C136.363 762.331 136.08 762.048 136.08 762.331L136.08 770.553C136.08 770.709 136.208 770.836 136.363 770.836L153.373 770.836C153.529 770.836 153.657 770.709 153.657 770.553L153.657 762.331C153.657 762.048 153.373 762.331 153.657 762.331L170.1 762.331C170.383 762.331 170.1 762.048 170.1 762.331L170.1 770.553C170.1 770.709 170.228 770.836 170.383 770.836L187.393 770.836C187.549 770.836 187.677 770.709 187.677 770.553L187.677 762.331C187.677 762.048 187.393 762.331 187.677 762.331L204.12 762.331C204.403 762.331 204.12 762.048 204.12 762.331L204.12 770.553C204.12 770.709 204.248 770.836 204.403 770.836L221.413 770.836C221.569 770.836 221.697 770.709 221.697 770.553L221.697 762.331C221.697 762.048 221.413 762.331 221.697 762.331L238.14 762.331C238.423 762.331 238.14 762.048 238.14 762.331L238.14 770.553C238.14 770.709 238.268 770.836 238.423 770.836L255.433 770.836C255.589 770.836 255.717 770.709 255.717 770.553L255.717 762.331C255.717 762.048 255.433 762.331 255.717 762.331L286.618 762.331C286.774 762.331 286.902 762.204 286.902 762.048L286.902 731.146C286.902 730.863 286.618 731.146 286.902 731.146L295.123 731.146C295.279 731.146 295.407 731.019 295.407 730.863L295.407 713.853C295.407 713.697 295.279 713.57 295.123 713.57L286.902 713.57C286.618 713.57 286.902 713.853 286.902 713.57L286.902 697.126C286.902 696.843 286.618 697.126 286.902 697.126L295.123 697.126C295.279 697.126 295.407 696.999 295.407 696.843L295.407 679.833C295.407 679.677 295.279 679.55 295.123 679.55L286.902 679.55C286.618 679.55 286.902 679.833 286.902 679.55L286.902 663.106C286.902 662.823 286.618 663.106 286.902 663.106L295.123 663.106C295.279 663.106 295.407 662.979 295.407 662.823L295.407 645.813C295.407 645.657 295.279 645.53 295.123 645.53L286.902 645.53C286.618 645.53 286.902 645.813 286.902 645.53L286.902 629.086C286.902 628.803 286.618 629.086 286.902 629.086L295.123 629.086C295.279 629.086 295.407 628.959 295.407 628.803L295.407 611.793C295.407 611.637 295.279 611.509 295.123 611.509L286.902 611.509C286.618 611.509 286.902 611.793 286.902 611.509L286.902 595.066C286.902 594.783 286.618 595.066 286.902 595.066L295.123 595.066C295.279 595.066 295.407 594.939 295.407 594.783L295.407 577.773C295.407 577.617 295.279 577.489 295.123 577.489L286.902 577.489C286.618 577.489 286.902 577.773 286.902 577.489L286.902 561.046C286.902 560.763 286.618 561.046 286.902 561.046L295.123 561.046C295.279 561.046 295.407 560.919 295.407 560.763L295.407 543.753C295.407 543.597 295.279 543.469 295.123 543.469L286.902 543.469C286.618 543.469 286.902 543.753 286.902 543.469L286.902 527.026C286.902 526.743 286.618 527.026 286.902 527.026L295.123 527.026C295.279 527.026 295.407 526.899 295.407 526.743L295.407 509.733C295.407 509.577 295.279 509.449 295.123 509.449L286.902 509.449C286.618 509.449 286.902 509.733 286.902 509.449L286.902 493.006C286.902 492.723 286.618 493.006 286.902 493.006L295.123 493.006C295.279 493.006 295.407 492.879 295.407 492.723L295.407 475.713C295.407 475.557 295.279 475.429 295.123 475.429L286.902 475.429C286.618 475.429 286.902 475.713 286.902 475.429L286.902 458.986C286.902 458.703 286.618 458.986 286.902 458.986L295.123 458.986C295.279 458.986 295.407 458.859 295.407 458.703L295.407 441.693C295.407 441.537 295.279 441.409 295.123 441.409L286.902 441.409C286.618 441.409 286.902 441.693 286.902 441.409L286.902 410.508C286.902 410.352 286.774 410.224 286.618 410.224L255.717 410.224C255.433 410.224 255.717 410.508 255.717 410.224L255.717 402.003C255.717 401.847 255.589 401.719 255.433 401.719L238.423 401.719C238.268 401.719 238.14 401.847 238.14 402.003L238.14 410.224C238.14 410.508 238.423 410.224 238.14 410.224L221.697 410.224C221.413 410.224 221.697 410.508 221.697 410.224L221.697 402.003C221.697 401.847 221.569 401.719 221.413 401.719L204.403 401.719C204.248 401.719 204.12 401.847 204.12 402.003L204.12 410.224C204.12 410.508 204.403 410.224 204.12 410.224L187.677 410.224C187.393 410.224 187.677 410.508 187.677 410.224L187.677 402.003C187.677 401.847 187.549 401.719 187.393 401.719L170.383 401.719C170.228 401.719 170.1 401.847 170.1 402.003L170.1 410.224C170.1 410.508 170.383 410.224 170.1 410.224L153.657 410.224C153.373 410.224 153.657 410.508 153.657 410.224L153.657 402.003C153.657 401.847 153.529 401.719 153.373 401.719L136.363 401.719C136.208 401.719 136.08 401.847 136.08 402.003L136.08 410.224C136.08 410.508 136.363 410.224 136.08 410.224L119.637 410.224C119.353 410.224 119.637 410.508 119.637 410.224L119.637 402.003C119.637 401.847 119.509 401.719 119.353 401.719L102.343 401.719C102.188 401.719 102.06 401.847 102.06 402.003L102.06 410.224C102.06 410.508 102.343 410.224 102.06 410.224L85.617 410.224C85.3335 410.224 85.617 410.508 85.617 410.224L85.617 402.003C85.617 401.847 85.4894 401.719 85.3335 401.719L68.3235 401.719C68.1676 401.719 68.04 401.847 68.04 402.003L68.04 410.224C68.04 410.508 68.3235 410.224 68.04 410.224L37.1385 410.224C36.9826 410.224 36.855 410.352 36.855 410.508L36.855 441.409C36.855 441.693 37.1385 441.409 36.855 441.409L28.6335 441.409C28.4776 441.409 28.35 441.537 28.35 441.693L28.35 458.703C28.35 458.859 28.4776 458.986 28.6335 458.986L36.855 458.986C37.1385 458.986 36.855 458.703 36.855 458.986L36.855 475.429C36.855 475.713 37.1385 475.429 36.855 475.429L28.6335 475.429C28.4776 475.429 28.35 475.557 28.35 475.713L28.35 492.723C28.35 492.879 28.4776 493.006 28.6335 493.006L36.855 493.006C37.1385 493.006 36.855 492.723 36.855 493.006L36.855 509.449C36.855 509.733 37.1385 509.449 36.855 509.449L28.6335 509.449C28.4776 509.449 28.35 509.577 28.35 509.733L28.35 526.743C28.35 526.899 28.4776 527.026 28.6335 527.026L36.855 527.026C37.1385 527.026 36.855 526.743 36.855 527.026L36.855 543.469C36.855 543.753 37.1385 543.469 36.855 543.469L28.6335 543.469C28.4776 543.469 28.35 543.597 28.35 543.753L28.35 560.763C28.35 560.919 28.4776 561.046 28.6335 561.046L36.855 561.046C37.1385 561.046 36.855 560.763 36.855 561.046L36.855 577.489C36.855 577.773 37.1385 577.489 36.855 577.489L28.6335 577.489C28.4776 577.489 28.35 577.617 28.35 577.773L28.35 594.783C28.35 594.939 28.4776 595.066 28.6335 595.066L36.855 595.066C37.1385 595.066 36.855 594.783 36.855 595.066L36.855 611.509C36.855 611.793 37.1385 611.509 36.855 611.509L28.6335 611.509C28.4776 611.509 28.35 611.637 28.35 611.793L28.35 628.803C28.35 628.959 28.4776 629.086 28.6335 629.086L36.855 629.086C37.1385 629.086 36.855 628.803 36.855 629.086L36.855 645.53C36.855 645.813 37.1385 645.53 36.855 645.53L28.6335 645.53C28.4776 645.53 28.35 645.657 28.35 645.813L28.35 662.823C28.35 662.979 28.4776 663.106 28.6335 663.106L36.855 663.106C37.1385 663.106 36.855 662.823 36.855 663.106L36.855 679.55C36.855 679.833 37.1385 679.55 36.855 679.55L28.6335 679.55C28.4776 679.55 28.35 679.677 28.35 679.833L28.35 696.843C28.35 696.999 28.4776 697.126 28.6335 697.126L36.855 697.126C37.1385 697.126 36.855 696.843 36.855 697.126L36.855 713.57C36.855 713.853 37.1385 713.57 36.855 713.57L28.6335 713.57C28.4776 713.57 28.35 713.697 28.35 713.853L28.35 730.863C28.35 731.019 28.4776 731.146 28.6335 731.146L36.855 731.146C37.1385 731.146 36.855 730.863 36.855 731.146L36.855 762.048C36.855 762.204 36.9826 762.331 37.1385 762.331" fill="none" opacity="1" stroke="#000000" stroke-linecap="round" stroke-linejoin="round" stroke-width="0.2"/>
</g>
<g id="p-4" vectornator:layerName="p-4">
<path d="M28.6335 388.962L41.6773 388.962C41.9608 388.962 41.6773 388.679 41.6773 388.962L41.6773 397.184C41.6773 397.339 41.8049 397.467 41.9608 397.467L49.3262 397.467C49.4821 397.467 49.6097 397.339 49.6097 397.184L49.6097 388.962C49.6097 388.679 49.3262 388.962 49.6097 388.962L54.1485 388.962L66.6225 388.962C66.906 388.962 66.6225 388.679 66.6225 388.962L66.6225 397.184C66.6225 397.339 66.7501 397.467 66.906 397.467L278.113 397.467L286.618 397.467C286.774 397.467 286.902 397.339 286.902 397.184L286.902 388.679L286.902 37.1385L286.902 28.6335C286.902 28.4776 286.774 28.35 286.618 28.35L278.113 28.35L66.906 28.35C66.7501 28.35 66.6225 28.4776 66.6225 28.6335L66.6225 36.855C66.6225 37.1385 66.906 36.855 66.6225 36.855L54.1485 36.855L49.6097 36.855C49.3262 36.855 49.6097 37.1385 49.6097 36.855L49.6097 28.6335C49.6097 28.4776 49.4821 28.35 49.3262 28.35L41.9608 28.35C41.8049 28.35 41.6773 28.4776 41.6773 28.6335L41.6773 36.855C41.6773 37.1385 41.9608 36.855 41.6773 36.855L28.6335 36.855C28.4776 36.855 28.35 36.9826 28.35 37.1385L28.35 388.679C28.35 388.834 28.4776 388.962 28.6335 388.962" fill="none" opacity="1" stroke="#000000" stroke-linecap="round" stroke-linejoin="round" stroke-width="0.2"/>
<path d="M82.6249 211.141L82.6249 74.9204C82.6249 70.2229 77.2631 74.9204 82.6249 74.9204L232.757 74.9204C238.119 74.9204 232.757 70.2229 232.757 74.9204L232.757 347.361C232.757 352.059 238.119 347.361 232.757 347.361L82.6249 347.361C77.2631 347.361 82.6249 352.059 82.6249 347.361L82.6249 211.141Z" fill="none" opacity="1" stroke="#0000ff" stroke-linecap="round" stroke-linejoin="round" stroke-width="0.2"/>
</g>
<g id="p-5" vectornator:layerName="p-5">
<path d="M325.458 1347.48L356.643 1347.48C356.799 1347.48 356.927 1347.35 356.927 1347.19L356.927 1338.97C356.927 1338.69 356.643 1338.97 356.927 1338.97L373.369 1338.97C373.653 1338.97 373.369 1338.69 373.369 1338.97L373.369 1347.19C373.369 1347.35 373.497 1347.48 373.653 1347.48L390.663 1347.48C390.819 1347.48 390.946 1347.35 390.946 1347.19L390.946 1338.97C390.946 1338.69 390.663 1338.97 390.946 1338.97L407.389 1338.97C407.673 1338.97 407.389 1338.69 407.389 1338.97L407.389 1347.19C407.389 1347.35 407.517 1347.48 407.673 1347.48L424.683 1347.48C424.839 1347.48 424.966 1347.35 424.966 1347.19L424.966 1338.97C424.966 1338.69 424.683 1338.97 424.966 1338.97L441.409 1338.97C441.693 1338.97 441.409 1338.69 441.409 1338.97L441.409 1347.19C441.409 1347.35 441.537 1347.48 441.693 1347.48L458.703 1347.48C458.859 1347.48 458.986 1347.35 458.986 1347.19L458.986 1338.97C458.986 1338.69 458.703 1338.97 458.986 1338.97L475.429 1338.97C475.713 1338.97 475.429 1338.69 475.429 1338.97L475.429 1347.19C475.429 1347.35 475.557 1347.48 475.713 1347.48L492.723 1347.48C492.879 1347.48 493.006 1347.35 493.006 1347.19L493.006 1338.97C493.006 1338.69 492.723 1338.97 493.006 1338.97L509.449 1338.97C509.733 1338.97 509.449 1338.69 509.449 1338.97L509.449 1347.19C509.449 1347.35 509.577 1347.48 509.733 1347.48L526.743 1347.48C526.899 1347.48 527.026 1347.35 527.026 1347.19L527.026 1338.97C527.026 1338.69 526.743 1338.97 527.026 1338.97L543.469 1338.97C543.753 1338.97 543.469 1338.69 543.469 1338.97L543.469 1347.19C543.469 1347.35 543.597 1347.48 543.753 1347.48L560.763 1347.48C560.919 1347.48 561.046 1347.35 561.046 1347.19L561.046 1338.97C561.046 1338.69 560.763 1338.97 561.046 1338.97L577.489 1338.97C577.773 1338.97 577.489 1338.69 577.489 1338.97L577.489 1347.19C577.489 1347.35 577.617 1347.48 577.773 1347.48L594.783 1347.48C594.939 1347.48 595.066 1347.35 595.066 1347.19L595.066 1338.97C595.066 1338.69 594.783 1338.97 595.066 1338.97L611.509 1338.97C611.793 1338.97 611.509 1338.69 611.509 1338.97L611.509 1347.19C611.509 1347.35 611.637 1347.48 611.793 1347.48L628.803 1347.48C628.959 1347.48 629.086 1347.35 629.086 1347.19L629.086 1338.97C629.086 1338.69 628.803 1338.97 629.086 1338.97L645.53 1338.97C645.813 1338.97 645.53 1338.69 645.53 1338.97L645.53 1347.19C645.53 1347.35 645.657 1347.48 645.813 1347.48L676.998 1347.48C677.154 1347.48 677.281 1347.35 677.281 1347.19L677.281 1329.05C677.281 1328.76 676.998 1329.05 677.281 1329.05L685.503 1329.05C685.659 1329.05 685.786 1328.92 685.786 1328.76L685.786 1311.75C685.786 1311.6 685.659 1311.47 685.503 1311.47L677.281 1311.47C676.998 1311.47 677.281 1311.75 677.281 1311.47L677.281 1295.03C677.281 1294.74 676.998 1295.03 677.281 1295.03L685.503 1295.03C685.659 1295.03 685.786 1294.9 685.786 1294.74L685.786 1277.73C685.786 1277.58 685.659 1277.45 685.503 1277.45L677.281 1277.45C676.998 1277.45 677.281 1277.73 677.281 1277.45L677.281 1261.01C677.281 1260.72 676.998 1261.01 677.281 1261.01L685.503 1261.01C685.659 1261.01 685.786 1260.88 685.786 1260.72L685.786 1243.71C685.786 1243.56 685.659 1243.43 685.503 1243.43L677.281 1243.43C676.998 1243.43 677.281 1243.71 677.281 1243.43L677.281 1226.99C677.281 1226.7 676.998 1226.99 677.281 1226.99L685.503 1226.99C685.659 1226.99 685.786 1226.86 685.786 1226.7L685.786 1209.69C685.786 1209.54 685.659 1209.41 685.503 1209.41L677.281 1209.41C676.998 1209.41 677.281 1209.69 677.281 1209.41L677.281 1192.97C677.281 1192.68 676.998 1192.97 677.281 1192.97L685.503 1192.97C685.659 1192.97 685.786 1192.84 685.786 1192.68L685.786 1175.67C685.786 1175.52 685.659 1175.39 685.503 1175.39L677.281 1175.39C676.998 1175.39 677.281 1175.67 677.281 1175.39L677.281 1158.95C677.281 1158.66 676.998 1158.95 677.281 1158.95L685.503 1158.95C685.659 1158.95 685.786 1158.82 685.786 1158.66L685.786 1141.65C685.786 1141.5 685.659 1141.37 685.503 1141.37L677.281 1141.37C676.998 1141.37 677.281 1141.65 677.281 1141.37L677.281 1124.93C677.281 1124.64 676.998 1124.93 677.281 1124.93L685.503 1124.93C685.659 1124.93 685.786 1124.8 685.786 1124.64L685.786 1107.63C685.786 1107.48 685.659 1107.35 685.503 1107.35L677.281 1107.35C676.998 1107.35 677.281 1107.63 677.281 1107.35L677.281 1089.21C677.281 1089.05 677.154 1088.92 676.998 1088.92L325.458 1088.92C325.302 1088.92 325.174 1089.05 325.174 1089.21L325.174 1107.35C325.174 1107.63 325.458 1107.35 325.174 1107.35L316.953 1107.35C316.797 1107.35 316.669 1107.48 316.669 1107.63L316.669 1124.64C316.669 1124.8 316.797 1124.93 316.953 1124.93L325.174 1124.93C325.458 1124.93 325.174 1124.64 325.174 1124.93L325.174 1141.37C325.174 1141.65 325.458 1141.37 325.174 1141.37L316.953 1141.37C316.797 1141.37 316.669 1141.5 316.669 1141.65L316.669 1158.66C316.669 1158.82 316.797 1158.95 316.953 1158.95L325.174 1158.95C325.458 1158.95 325.174 1158.66 325.174 1158.95L325.174 1175.39C325.174 1175.67 325.458 1175.39 325.174 1175.39L316.953 1175.39C316.797 1175.39 316.669 1175.52 316.669 1175.67L316.669 1192.68C316.669 1192.84 316.797 1192.97 316.953 1192.97L325.174 1192.97C325.458 1192.97 325.174 1192.68 325.174 1192.97L325.174 1209.41C325.174 1209.69 325.458 1209.41 325.174 1209.41L316.953 1209.41C316.797 1209.41 316.669 1209.54 316.669 1209.69L316.669 1226.7C316.669 1226.86 316.797 1226.99 316.953 1226.99L325.174 1226.99C325.458 1226.99 325.174 1226.7 325.174 1226.99L325.174 1243.43C325.174 1243.71 325.458 1243.43 325.174 1243.43L316.953 1243.43C316.797 1243.43 316.669 1243.56 316.669 1243.71L316.669 1260.72C316.669 1260.88 316.797 1261.01 316.953 1261.01L325.174 1261.01C325.458 1261.01 325.174 1260.72 325.174 1261.01L325.174 1277.45C325.174 1277.73 325.458 1277.45 325.174 1277.45L316.953 1277.45C316.797 1277.45 316.669 1277.58 316.669 1277.73L316.669 1294.74C316.669 1294.9 316.797 1295.03 316.953 1295.03L325.174 1295.03C325.458 1295.03 325.174 1294.74 325.174 1295.03L325.174 1311.47C325.174 1311.75 325.458 1311.47 325.174 1311.47L316.953 1311.47C316.797 1311.47 316.669 1311.6 316.669 1311.75L316.669 1328.76C316.669 1328.92 316.797 1329.05 316.953 1329.05L325.174 1329.05C325.458 1329.05 325.174 1328.76 325.174 1329.05L325.174 1347.19C325.174 1347.35 325.302 1347.48 325.458 1347.48" fill="none" opacity="1" stroke="#000000" stroke-linecap="round" stroke-linejoin="round" stroke-width="0.2"/>
<path d="M375.01 1217.95L375.01 1125.97C375.01 1122.8 366.136 1125.97 375.01 1125.97L623.49 1125.97C632.365 1125.97 623.49 1122.8 623.49 1125.97L623.49 1309.92C623.49 1313.1 632.365 1309.92 623.49 1309.92L375.01 1309.92C366.136 1309.92 375.01 1313.1 375.01 1309.92L375.01 1217.95Z" fill="none" opacity="1" stroke="#0000ff" stroke-linecap="round" stroke-linejoin="round" stroke-width="0.2"/>
</g>
<g id="p-6" vectornator:layerName="p-6">
<path d="M324.474 1083.44L355.659 1083.44C355.815 1083.44 355.942 1083.31 355.942 1083.16L355.942 1074.94C355.942 1074.65 355.659 1074.94 355.942 1074.94L372.385 1074.94C372.669 1074.94 372.385 1074.65 372.385 1074.94L372.385 1083.16C372.385 1083.31 372.513 1083.44 372.669 1083.44L389.679 1083.44C389.835 1083.44 389.962 1083.31 389.962 1083.16L389.962 1074.94C389.962 1074.65 389.679 1074.94 389.962 1074.94L406.405 1074.94C406.689 1074.94 406.405 1074.65 406.405 1074.94L406.405 1083.16C406.405 1083.31 406.533 1083.44 406.689 1083.44L423.699 1083.44C423.855 1083.44 423.982 1083.31 423.982 1083.16L423.982 1074.94C423.982 1074.65 423.699 1074.94 423.982 1074.94L440.425 1074.94C440.709 1074.94 440.425 1074.65 440.425 1074.94L440.425 1083.16C440.425 1083.31 440.553 1083.44 440.709 1083.44L457.719 1083.44C457.875 1083.44 458.002 1083.31 458.002 1083.16L458.002 1074.94C458.002 1074.65 457.719 1074.94 458.002 1074.94L474.445 1074.94C474.729 1074.94 474.445 1074.65 474.445 1074.94L474.445 1083.16C474.445 1083.31 474.573 1083.44 474.729 1083.44L491.739 1083.44C491.895 1083.44 492.022 1083.31 492.022 1083.16L492.022 1074.94C492.022 1074.65 491.739 1074.94 492.022 1074.94L508.465 1074.94C508.749 1074.94 508.465 1074.65 508.465 1074.94L508.465 1083.16C508.465 1083.31 508.593 1083.44 508.749 1083.44L525.759 1083.44C525.915 1083.44 526.042 1083.31 526.042 1083.16L526.042 1074.94C526.042 1074.65 525.759 1074.94 526.042 1074.94L542.485 1074.94C542.769 1074.94 542.485 1074.65 542.485 1074.94L542.485 1083.16C542.485 1083.31 542.613 1083.44 542.769 1083.44L559.779 1083.44C559.935 1083.44 560.062 1083.31 560.062 1083.16L560.062 1074.94C560.062 1074.65 559.779 1074.94 560.062 1074.94L576.505 1074.94C576.789 1074.94 576.505 1074.65 576.505 1074.94L576.505 1083.16C576.505 1083.31 576.633 1083.44 576.789 1083.44L593.799 1083.44C593.955 1083.44 594.082 1083.31 594.082 1083.16L594.082 1074.94C594.082 1074.65 593.799 1074.94 594.082 1074.94L610.525 1074.94C610.809 1074.94 610.525 1074.65 610.525 1074.94L610.525 1083.16C610.525 1083.31 610.653 1083.44 610.809 1083.44L627.819 1083.44C627.975 1083.44 628.102 1083.31 628.102 1083.16L628.102 1074.94C628.102 1074.65 627.819 1074.94 628.102 1074.94L644.545 1074.94C644.829 1074.94 644.545 1074.65 644.545 1074.94L644.545 1083.16C644.545 1083.31 644.673 1083.44 644.829 1083.44L676.014 1083.44C676.17 1083.44 676.297 1083.31 676.297 1083.16L676.297 1065.01C676.297 1064.73 676.014 1065.01 676.297 1065.01L684.519 1065.01C684.675 1065.01 684.802 1064.89 684.802 1064.73L684.802 1047.72C684.802 1047.56 684.675 1047.44 684.519 1047.44L676.297 1047.44C676.014 1047.44 676.297 1047.72 676.297 1047.44L676.297 1030.99C676.297 1030.71 676.014 1030.99 676.297 1030.99L684.519 1030.99C684.675 1030.99 684.802 1030.87 684.802 1030.71L684.802 1013.7C684.802 1013.54 684.675 1013.42 684.519 1013.42L676.297 1013.42C676.014 1013.42 676.297 1013.7 676.297 1013.42L676.297 996.973C676.297 996.69 676.014 996.973 676.297 996.973L684.519 996.973C684.675 996.973 684.802 996.846 684.802 996.69L684.802 979.68C684.802 979.524 684.675 979.396 684.519 979.396L676.297 979.396C676.014 979.396 676.297 979.68 676.297 979.396L676.297 962.953C676.297 962.67 676.014 962.953 676.297 962.953L684.519 962.953C684.675 962.953 684.802 962.826 684.802 962.67L684.802 945.66C684.802 945.504 684.675 945.376 684.519 945.376L676.297 945.376C676.014 945.376 676.297 945.66 676.297 945.376L676.297 928.933C676.297 928.65 676.014 928.933 676.297 928.933L684.519 928.933C684.675 928.933 684.802 928.806 684.802 928.65L684.802 911.64C684.802 911.484 684.675 911.356 684.519 911.356L676.297 911.356C676.014 911.356 676.297 911.64 676.297 911.356L676.297 894.913C676.297 894.63 676.014 894.913 676.297 894.913L684.519 894.913C684.675 894.913 684.802 894.786 684.802 894.63L684.802 877.62C684.802 877.464 684.675 877.336 684.519 877.336L676.297 877.336C676.014 877.336 676.297 877.62 676.297 877.336L676.297 860.893C676.297 860.61 676.014 860.893 676.297 860.893L684.519 860.893C684.675 860.893 684.802 860.766 684.802 860.61L684.802 843.6C684.802 843.444 684.675 843.316 684.519 843.316L676.297 843.316C676.014 843.316 676.297 843.6 676.297 843.316L676.297 825.172C676.297 825.017 676.17 824.889 676.014 824.889L324.474 824.889C324.318 824.889 324.19 825.017 324.19 825.172L324.19 843.316C324.19 843.6 324.474 843.316 324.19 843.316L315.969 843.316C315.813 843.316 315.685 843.444 315.685 843.6L315.685 860.61C315.685 860.766 315.813 860.893 315.969 860.893L324.19 860.893C324.474 860.893 324.19 860.61 324.19 860.893L324.19 877.336C324.19 877.62 324.474 877.336 324.19 877.336L315.969 877.336C315.813 877.336 315.685 877.464 315.685 877.62L315.685 894.63C315.685 894.786 315.813 894.913 315.969 894.913L324.19 894.913C324.474 894.913 324.19 894.63 324.19 894.913L324.19 911.356C324.19 911.64 324.474 911.356 324.19 911.356L315.969 911.356C315.813 911.356 315.685 911.484 315.685 911.64L315.685 928.65C315.685 928.806 315.813 928.933 315.969 928.933L324.19 928.933C324.474 928.933 324.19 928.65 324.19 928.933L324.19 945.376C324.19 945.66 324.474 945.376 324.19 945.376L315.969 945.376C315.813 945.376 315.685 945.504 315.685 945.66L315.685 962.67C315.685 962.826 315.813 962.953 315.969 962.953L324.19 962.953C324.474 962.953 324.19 962.67 324.19 962.953L324.19 979.396C324.19 979.68 324.474 979.396 324.19 979.396L315.969 979.396C315.813 979.396 315.685 979.524 315.685 979.68L315.685 996.69C315.685 996.846 315.813 996.973 315.969 996.973L324.19 996.973C324.474 996.973 324.19 996.69 324.19 996.973L324.19 1013.42C324.19 1013.7 324.474 1013.42 324.19 1013.42L315.969 1013.42C315.813 1013.42 315.685 1013.54 315.685 1013.7L315.685 1030.71C315.685 1030.87 315.813 1030.99 315.969 1030.99L324.19 1030.99C324.474 1030.99 324.19 1030.71 324.19 1030.99L324.19 1047.44C324.19 1047.72 324.474 1047.44 324.19 1047.44L315.969 1047.44C315.813 1047.44 315.685 1047.56 315.685 1047.72L315.685 1064.73C315.685 1064.89 315.813 1065.01 315.969 1065.01L324.19 1065.01C324.474 1065.01 324.19 1064.73 324.19 1065.01L324.19 1083.16C324.19 1083.31 324.318 1083.44 324.474 1083.44" fill="none" opacity="1" stroke="#000000" stroke-linecap="round" stroke-linejoin="round" stroke-width="0.2"/>
<path d="M373.259 952.485L373.259 860.474C373.259 857.301 364.385 860.474 373.259 860.474L621.74 860.474C630.614 860.474 621.74 857.301 621.74 860.474L621.74 1044.5C621.74 1047.67 630.614 1044.5 621.74 1044.5L373.259 1044.5C364.385 1044.5 373.259 1047.67 373.259 1044.5L373.259 952.485Z" fill="none" opacity="1" stroke="#0000ff" stroke-linecap="round" stroke-linejoin="round" stroke-width="0.2"/>
</g>
</svg>
